<?xml version="1.0" encoding="UTF-8"?>
<svg version="1.1" viewBox="0 0 2048 2048" width="512" height="512" xmlns="http://www.w3.org/2000/svg">
<path transform="translate(91)" d="m0 0h1867l16 4 16 6 15 9 10 8 8 8 9 13 8 15 6 17 2 11v1526l-6 21-4 10-11 18-11 13-13 10-16 9-18 6-12 2-13 1h-647v273h204l1 1v67h-956v-68h204v-186l1-87h-649l-20-2-17-5-19-10-16-13-12-15-9-16-6-16-3-11v-1531l6-21 8-16 6-9 12-15 15-11 17-9 18-6z" fill="#BB00FC"/>
<path transform="translate(91)" d="m0 0h1867l16 4 16 6 15 9 10 8 8 8 9 13 8 15 6 17 2 11v1526l-6 21-4 10-11 18-11 13-13 10-16 9-18 6-12 2-13 1h-647v273h204l1 1v67h-956v-68h204v-186l1-87h-649l-20-2-17-5-19-10-16-13-12-15-9-16-6-16-3-11v-1531l6-21 8-16 6-9 12-15 15-11 17-9 18-6zm4 69-8 4-10 8-6 10-2 8-1 1128 5 2h1899l7-1 1-914v-198l-1-17-4-11-4-7-10-8-8-3-7-1z" fill="#030203"/>
<path transform="translate(69,1297)" d="m0 0h1910l1 1v180l-1 132-4 11-6 8-8 6-8 2-10 1-1849-1-9-3-8-7-6-9-2-8-1-10v-301z" fill="#FAFAFA"/>
<path transform="translate(431,136)" d="m0 0h23l28 2 29 5 24 6 19 7 20 9 17 8 15 9 18 12 14 11 10 8v2l4 2 20 20 7 8 13 17 16 24 11 19 9 19 6 16 8 26 5 24 3 24 2 25v13l-3 34-4 25-7 25-8 23-10 22-11 19-10 15-12 17-9 11-12 14-12 12-11 9-10 9-27 18-14 9-28 14-35 12-24 6-18 3-22 2-23 1-23-1-33-4-26-6-15-5-16-6-20-9-19-10-24-16-14-10-14-12-7-7-8-7-10-11-22-28-13-21-9-16-11-23-9-24-7-29-5-31-1-16v-33l2-22 6-34 8-28 12-28 12-24 14-22 9-12 14-17 7-7 7-8 7-7 8-7 13-11 15-11 19-12 27-14 21-9 18-6 29-7 26-4z" fill="#030203"/>
<path transform="translate(1052,477)" d="m0 0h692l11 1 16 6 11 7 10 9 9 13 5 10 3 12 1 43v26l-1 25-3 10-5 10-10 13-7 7-10 6-8 4-14 4-8 1h-688l-17-3-12-5-10-6-9-7-9-12-7-14-2-9-1-10v-75l2-15 7-16 7-10 10-10 14-9 11-4z" fill="#030203"/>
<path transform="translate(1060,204)" d="m0 0h515l13 2 11 4 11 6 6 5 9 11 7 11 5 13 2 21v69l-2 14-5 13-6 9-9 10-9 8-16 7-12 3-6 1h-520l-18-4-16-8-11-9-11-14-6-12-2-9-1-10v-77l2-13 5-12 8-13 10-11 14-9 16-5z" fill="#020203"/>
<path transform="translate(406,208)" d="m0 0 4 1 1 171 2 17 5 17 8 16 7 10 3 3v2l4 2 8 7 13 9 16 8 13 4 18 2 171 1v8l-5 21-7 21-6 15-10 19-12 18-12 17-10 11-7 8-12 11-17 12-19 12-23 12-19 7-22 6-22 4-21 2h-24l-22-2-22-4-21-6-20-8-16-8-9-5-20-14-10-8-13-11-10-10-7-8-10-12-9-14-9-16-8-16-10-26-6-23-3-19-1-11v-36l4-29 6-24 7-19 12-25 12-20 11-14 11-12 5-6 8-7 13-12 15-11 15-10 22-11 21-8 23-6z" fill="#FAFAFA"/>
<path transform="translate(820,1708)" d="m0 0h406l2 1v270l-2 1h-399l-7-1z" fill="#BB00FC"/>
<path transform="translate(1072,544)" d="m0 0h615l51 1 3 3v64l-2 2h-680l-2-1v-65l1-3z" fill="#142312"/>
<path transform="translate(1775,818)" d="m0 0h70l16 3 13 5 12 7 10 10 7 10 5 11 3 12 1 10v75l-2 13-5 13-7 11-12 12-10 7-8 4-11 3-10 1h-80l-14-3-14-7-11-9-8-7-8-13-4-11-2-15v-79l2-12 5-13 6-10 7-8 9-7 10-6 11-4z" fill="#030204"/>
<path transform="translate(205,818)" d="m0 0h71l18 4 12 5 11 7 9 9 7 10 5 11 3 12 1 19v64l-2 16-5 12-7 11-13 13-11 7-13 5-13 2h-79l-16-3-12-6-12-9-5-5-8-9-7-15-3-15v-83l3-14 5-12 7-11 11-10 11-7 13-5z" fill="#040204"/>
<path transform="translate(810,1091)" d="m0 0h9l1 2v68l-1 1h-508l-5-2v-67l1-1z" fill="#020202"/>
<path transform="translate(1229,1091)" d="m0 0h510l2 1 1 58v11l-1 1h-507l-6-2v-68z" fill="#020202"/>
<path transform="translate(1060,273)" d="m0 0h509l1 1v65l-4 2h-504l-3-1-1-2v-63z" fill="#FAFAFA"/>
<path transform="translate(479,209)" d="m0 0 10 1 21 5 22 8 22 10 15 9 18 12v2l4 2 10 8 13 12 8 8 9 11 11 15 11 18 7 14 9 25 7 24 3 14-1 2h-172l-10-4-10-9-6-12-1-3z" fill="#48065F"/>
<path transform="translate(1229,818)" d="m0 0h273l1 1v69l-1 1h-270l-4-1v-69z" fill="#020202"/>
<path transform="translate(546,818)" d="m0 0h273l1 1v70h-269l-6-2v-67z" fill="#020202"/>
<path transform="translate(546,955)" d="m0 0h273l1 1v69h-273l-2-2v-66z" fill="#020202"/>
<path transform="translate(1229,955)" d="m0 0h273l1 2v67l-1 1h-272l-2-2v-67z" fill="#020202"/>
<path transform="translate(1017,1399)" d="m0 0h16l15 4 14 7 10 9 7 7 8 14 4 12 2 18-2 13-5 15-7 11-9 10-13 9-11 5-14 3h-17l-16-4-15-8-12-11-6-8-7-14-3-11-1-13 3-19 5-12 7-11 7-8 12-9 11-5 10-3z" fill="#020202"/>
<path transform="translate(854,545)" d="m0 0h67l1 1 1 51v9l-1 9-2 1h-64l-4-1v-67z" fill="#020202"/>
<path transform="translate(410,818)" d="m0 0h62l7 1v69l-1 1h-64l-5-1-1-6 1-63z" fill="#020202"/>
<path transform="translate(853,272)" d="m0 0 69 1 1 53-1 16-1 1h-64l-5-3v-64z" fill="#020202"/>
<path transform="translate(1570,955)" d="m0 0h68l1 1v68l-1 1h-67l-2-2v-66z" fill="#020202"/>
<path transform="translate(887,818)" d="m0 0h68l2 4v46l-1 21h-65l-4-1-1-7v-58z" fill="#070209"/>
<path transform="translate(1570,818)" d="m0 0h68l1 1v69l-1 1h-59l-9-1-1-1v-67z" fill="#020202"/>
<path transform="translate(409,955)" d="m0 0h69l1 2v67l-1 1h-67l-2-1z" fill="#020202"/>
<path transform="translate(232,1091)" d="m0 0h6l2 3v67l-1 1h-45l-24-1v-69z" fill="#020202"/>
<path transform="translate(1809,1092)" d="m0 0h68l1 1v68l-1 1h-49l-19-1-1-1v-67z" fill="#020202"/>
<path transform="translate(1148,818)" d="m0 0h12l1 1v70h-63l-6-1v-69z" fill="#020202"/>
<path transform="translate(887,1092)" d="m0 0h69l1 2v66l-1 2h-48l-21-1-1-7v-52z" fill="#070208"/>
<path transform="translate(887,955)" d="m0 0h68l1 1v69h-68l-2-2z" fill="#060207"/>
<path transform="translate(1092,955)" d="m0 0h68l1 1v69h-66l-3-1z" fill="#060207"/>
<path transform="translate(1151,1091)" d="m0 0h8l2 1v70h-50l-18-1-1-1v-68z" fill="#020202"/>
<path transform="translate(1779,886)" d="m0 0h62l2 1 1 42-1 26-2 1h-64l-2-2-1-53 1-14z" fill="#142312"/>
<path transform="translate(206,887)" d="m0 0h66l1 2v65l-3 2h-63l-2-2v-66z" fill="#FAFAFA"/>
<path transform="translate(102,67)" d="m0 0h1829l19 1 9 3-3 1-10-2h-816l-1035-1v-1z" fill="#48065F"/>
<path transform="translate(810,1091)" d="m0 0h9l1 2v68l-1 1h-508l-5-2v-67l1-1zm-502 2v65l2 2h509v-66l-1-1z" fill="#48065F"/>
<path transform="translate(1229,1091)" d="m0 0h510l2 1 1 58v11l-1 1h-507l-6-2v-68zm1 2-1 1 1 64 2 2h508v-66l-1-1z" fill="#48065F"/>
<path transform="translate(1058,271)" d="m0 0h510l3 2v68l-2 1h-512l-1-1-1-41v-25zm2 2-2 2v63l1 2 3 1h504l4-2v-65l-1-1z" fill="#1A1F1C"/>
<path transform="translate(1019,670)" d="m0 0 5 2 12 5 13 3 7 1h687l18-3 10-4 3 1-8 4-14 4-8 1h-688l-17-3-12-5-8-5z" fill="#48065F"/>
<path transform="translate(1229,818)" d="m0 0h273l1 1v69l-1 1h-270l-4-1v-69zm1 2-1 1 1 65 1 1 269 1 1-1v-67z" fill="#48065F"/>
<path transform="translate(546,818)" d="m0 0h273l1 1v70h-269l-6-2v-67zm1 2v65l2 2 268 1 2-1v-66l-1-1z" fill="#48065F"/>
<path transform="translate(1229,955)" d="m0 0h273l1 2v67l-1 1h-272l-2-2v-67zm1 1-1 3 1 63 6 2h264l1-1v-66l-1-1z" fill="#48065F"/>
<path transform="translate(546,955)" d="m0 0h273l1 1v69h-273l-2-2v-66zm1 1v66l1 1 11 1h259l1-1v-66l-1-1z" fill="#48065F"/>
<path transform="translate(1024,400)" d="m0 0 5 1 10 4 9 2 9 1 195 1h133l185-1 13-1 10-3 4 1-11 4-12 2h-520l-18-4-12-6z" fill="#48065F"/>
<path transform="translate(596,709)" d="m0 0 2 1-8 5-26 13-35 12-24 6-18 3-22 2-23 1-23-1-33-4-26-6-15-5-16-6-20-9-13-7 2-1 25 12 25 9 24 7 16 3 22 3 22 2h22l28-2 26-4 22-6 30-10 29-14z" fill="#48065F"/>
<path transform="translate(854,545)" d="m0 0h67l1 1 1 51v9l-1 9-2 1h-64l-4-1v-67zm0 2v63l1 3 2 1h64v-67z" fill="#48065F"/>
<path transform="translate(853,272)" d="m0 0 69 1 1 53-1 16-1 1h-64l-5-3v-64zm1 2v64l1 2 29 1h37v-67z" fill="#48065F"/>
<path transform="translate(410,818)" d="m0 0h62l7 1v69l-1 1h-64l-5-1-1-6 1-63zm0 2v64l2 3 64 1 1-1v-67z" fill="#48065F"/>
<path transform="translate(1809,1092)" d="m0 0h68l1 1v68l-1 1h-49l-19-1-1-1v-67zm1 1v65l2 2h64l1-4v-25l-1-38z" fill="#48065F"/>
<path transform="translate(1570,955)" d="m0 0h68l1 1v68l-1 1h-67l-2-2v-66zm1 1v66l1 1 23 1h41l2-1v-66l-1-1z" fill="#48065F"/>
<path transform="translate(266,884)" d="m0 0 9 1 1 2-1 2-1 67-3 1h-64v-1l63-1 2-1v-67l-66 1-1 65h-1l-1-13v-52l2-3z" fill="#1C1E1E"/>
<path transform="translate(232,1091)" d="m0 0h6l2 3v67l-1 1h-45l-24-1v-69zm-61 2v62l2 5h65v-67z" fill="#48065F"/>
<path transform="translate(1570,818)" d="m0 0h68l1 1v69l-1 1h-59l-9-1-1-1v-67zm1 2-1 6v21l1 39 1 1 62 1 4-1v-67z" fill="#48065F"/>
<path transform="translate(409,955)" d="m0 0h69l1 2v67l-1 1h-67l-2-1zm1 1v64l1 3 17 1h48l1-1v-66l-1-1z" fill="#48065F"/>
<path transform="translate(1148,818)" d="m0 0h12l1 1v70h-63l-6-1v-69zm-55 2v65l2 2 64 1 1-1v-66l-1-1z" fill="#48065F"/>
<path transform="translate(1151,1091)" d="m0 0h8l2 1v70h-50l-18-1-1-1v-68zm-58 2v65l2 2h65v-66l-1-1z" fill="#48065F"/>
<path transform="translate(1743,1016)" d="m0 0 9 3 8 2 9 1h83l14-3 6-1-4 3-11 3-10 1h-80l-14-3-10-5z" fill="#48065F"/>
<path transform="translate(1057,273)" d="m0 0h1l1 67 3 1h-4v-2h-2l-1-39v-25z" fill="#2A1632"/>
<path transform="translate(1018,216)" d="m0 0 2 1-16 16v-3l10-11z" fill="#330443"/>
<path transform="translate(1733,832)" d="m0 0 2 1-16 16v-3l7-8z" fill="#300440"/>
<path transform="translate(162,833)" d="m0 0 2 1-15 15v-3l8-9z" fill="#30043F"/>
<path transform="translate(983,1412)" d="m0 0 2 1-15 15v-3l7-8z" fill="#17101B"/>
</svg>
