<?xml version="1.0" encoding="UTF-8"?>
<svg version="1.1" viewBox="0 0 2048 2048" width="512" height="512" xmlns="http://www.w3.org/2000/svg">
<path transform="translate(91)" d="m0 0h1867l16 4 16 6 15 9 10 8 8 8 9 13 8 15 6 17 2 11v1526l-6 21-4 10-11 18-11 13-13 10-16 9-18 6-12 2-13 1h-647v273h204l1 1v67h-956v-68h204v-186l1-87h-649l-20-2-17-5-19-10-16-13-12-15-9-16-6-16-3-11v-1531l6-21 8-16 6-9 12-15 15-11 17-9 18-6z" fill="#48D212"/>
<path transform="translate(91)" d="m0 0h1867l16 4 16 6 15 9 10 8 8 8 9 13 8 15 6 17 2 11v1526l-6 21-4 10-11 18-11 13-13 10-16 9-18 6-12 2-13 1h-647v273h204l1 1v67h-956v-68h204v-186l1-87h-649l-20-2-17-5-19-10-16-13-12-15-9-16-6-16-3-11v-1531l6-21 8-16 6-9 12-15 15-11 17-9 18-6zm11 68-9 2-9 5-9 8-5 9-1 5-1 57v1073l1 1h1909l1-1v-1126l-3-12-6-10-9-6-11-4z" fill="#010201"/>
<path transform="translate(69,1297)" d="m0 0h1909l2 1-1 310-2 9-6 9-9 8-10 3h-1857l-9-3-8-7-6-8-3-10z" fill="#FAFAFA"/>
<path transform="translate(422,136)" d="m0 0h44l25 3 26 5 24 7 20 8 25 12 20 11 15 10 16 12 15 13 8 7 7 8 15 16 11 15 12 18 12 20 11 23 9 25 7 25 5 30 3 32v18l-2 24-4 28-8 29-6 17-7 17-11 23-11 17-13 19-9 12-12 14-15 15-8 7-12 10-16 11-20 13-14 8-26 12-30 10-24 6-30 4-22 2h-16l-39-4-26-5-25-7-29-11-16-8-11-6-17-11-13-9-12-9-17-16-5-4v-2h-2l-9-11-7-7-13-17-14-21-12-22-9-19-8-19-7-23-6-29-3-27v-45l3-24 6-29 6-21 10-25 12-25 12-20 12-17 9-11 22-24 15-14 11-9 13-10 19-12 16-9 25-12 21-8 23-6 25-5z" fill="#010301"/>
<path transform="translate(1123,476)" d="m0 0h442l184 1 11 2 12 5 12 8 10 10 8 13 5 10 2 7 1 10v79l-3 14-5 11-7 11-9 10-10 7-14 6-13 3-9 1h-654l-34-1-17-4-13-6-9-6-6-5-7-10-8-16-2-7-1-12v-79l3-14 8-16 9-11 13-10 16-8 14-2z" fill="#010201"/>
<path transform="translate(1134,203)" d="m0 0h387l58 1 14 3 16 8 12 11 8 11 7 15 2 9 1 9v79l-4 16-7 14-8 10-9 8-12 7-11 4-19 3h-507l-17-2-12-4-16-8-9-7-11-17-5-10-2-7-1-15v-76l3-14 7-14 9-12 11-10 16-8 16-3z" fill="#010401"/>
<path transform="translate(407,208)" d="m0 0 3 1v145l1 30 2 14 7 21 8 15 8 10 9 8 14 10 14 8 16 5 15 2 75 1h100l-1 13-6 22-10 27-11 22-8 12-12 17-7 9-13 15-10 9-13 10-15 10-15 9-16 8-20 8-25 7-23 4-9 1h-45l-28-4-26-7-24-10-21-11-14-10-12-9-11-9-12-11-9-10-12-14-10-16-12-22-8-18-9-27-5-24-2-21v-30l3-25 5-23 8-24 8-18 8-15 11-17 10-13 14-15 10-10 8-7 12-10 24-16 25-12 27-9 23-5z" fill="#FAFAFA"/>
<path transform="translate(819,1707)" d="m0 0h409v272h-408l-1-1z" fill="#1E6427"/>
<path transform="translate(1058,545)" d="m0 0 682 1 1 36v31h-683z" fill="#1E6427"/>
<path transform="translate(1772,818)" d="m0 0h75l15 3 11 4 12 7 5 4v2l4 2 9 13 5 11 3 10 1 10v77l-3 16-8 17-11 12-10 8-10 6-15 4-18 1h-50l-20-1-15-3-14-7-9-7-7-6-7-10-6-14-2-8-1-10v-79l2-12 7-16 8-11 10-9 14-8 16-5z" fill="#010201"/>
<path transform="translate(202,818)" d="m0 0h73l13 2 15 5 13 8 6 5v2h2l9 13 6 14 2 8 1 12v74l-3 16-6 13-7 10-4 5-12 9-16 8-9 2-21 1h-44l-23-1-12-2-12-5-10-7-11-9-7-10-6-14-3-17v-81l3-14 6-14 7-9 7-7 14-9 12-5z" fill="#010301"/>
<path transform="translate(590,1090)" d="m0 0h229l1 1v70l-9 1h-447l-58-1v-69l1-1z" fill="#010302"/>
<path transform="translate(1359,1090)" d="m0 0h147l235 1 1 2v67l-1 1-131 1h-324l-58-1-1-5 1-65z" fill="#010201"/>
<path transform="translate(1058,273)" d="m0 0h511l1 1v66l-511 1-1-1z" fill="#FAFAFA"/>
<path transform="translate(478,209)" d="m0 0 12 1 24 6 17 6 29 14 16 10 11 8 11 9 10 9 8 7 14 15 13 18 9 15 8 16 6 15 6 18 8 30v4h-168l-10-2-9-5-7-6-6-11-2-9z" fill="#3F1C29"/>
<path transform="translate(1290,816)" d="m0 0h173l40 1v71h-275l-1-1 1-69 22-1z" fill="#010301"/>
<path transform="translate(623,953)" d="m0 0h157l40 1v70l-1 1h-237l-37-1v-69l16-1z" fill="#010302"/>
<path transform="translate(1304,953)" d="m0 0h159l40 1v70l-5 1h-230l-40-1-1-4 1-65 10-1z" fill="#010301"/>
<path transform="translate(620,817)" d="m0 0h199l1 1v70h-274l-1-1v-68l1-1z" fill="#010402"/>
<path transform="translate(1014,1399)" d="m0 0h20l15 4 15 8 12 11 7 10 6 12 3 12 1 7v10l-3 15-5 12-6 9-9 10-11 8-12 6-13 3h-20l-13-3-16-8-12-11-6-7-5-8-5-14-2-10v-12l3-16 5-12 9-13 7-7 10-7 10-5z" fill="#020301"/>
<path transform="translate(1100,954)" d="m0 0h61l1 70-2 1h-63l-6-1v-69z" fill="#020502"/>
<path transform="translate(1585,954)" d="m0 0h54v70l-5 1h-59l-6-1v-69z" fill="#020602"/>
<path transform="translate(888,954)" d="m0 0h68l1 70-1 1h-65l-5-1v-68z" fill="#020402"/>
<path transform="translate(1600,817)" d="m0 0h39v71h-70v-69l1-1z" fill="#020502"/>
<path transform="translate(853,545)" d="m0 0h70l-1 69-1 1-46 1h-20l-3-1v-69z" fill="#010101"/>
<path transform="translate(1133,817)" d="m0 0h25l3 1 1 69-1 1h-70v-69l1-1z" fill="#020402"/>
<path transform="translate(1809,1091)" d="m0 0h69v70h-70v-69z" fill="#020603"/>
<path transform="translate(1092,1091)" d="m0 0h69v70h-70v-69z" fill="#010301"/>
<path transform="translate(853,272)" d="m0 0h69v70h-69l-1-1v-68z" fill="#010101"/>
<path transform="translate(887,818)" d="m0 0h69l1 2v68h-71v-69z" fill="#010302"/>
<path transform="translate(954,1090)" d="m0 0 2 1 1 69-1 1h-70v-69l1-1z" fill="#010201"/>
<path transform="translate(171,1091)" d="m0 0h68l1 1v68l-1 1h-69v-69z" fill="#020402"/>
<path transform="translate(430,954)" d="m0 0h48l1 3v67l-6 1h-59l-5-1v-69z" fill="#020402"/>
<path transform="translate(477,817)" d="m0 0 2 1v69l-1 1h-69l-1-7 1-63z" fill="#020402"/>
<path transform="translate(1775,887)" d="m0 0h68v68l-42 1h-24l-2-1z" fill="#1E6327"/>
<path transform="translate(206,887)" d="m0 0h66l1 1v67l-62 1-6-1v-67z" fill="#FAFAFA"/>
<path transform="translate(853,545)" d="m0 0h70l-1 69-1 1-46 1h-20l-3-1v-69zm1 1v67l1 1h65l1-1 1-67z" fill="#1E6227"/>
<path transform="translate(853,272)" d="m0 0h69v1l-68 1v63l1 3 66 1v-65h1v66h-69l-1-1v-68z" fill="#235727"/>
<path transform="translate(273,885)" d="m0 0 2 2-1 12h-1l-1-11h-66l-1 67h-1v-68l1-1z" fill="#3C2428"/>
<path transform="translate(921,276)" d="m0 0h1v66h-69l-1-4h2l1 2 66 1z" fill="#1E6427"/>
</svg>
