<?xml version="1.0" encoding="UTF-8"?>
<svg version="1.1" viewBox="0 0 1600 1600" width="500" height="500" xmlns="http://www.w3.org/2000/svg">
<path transform="translate(1052,231)" d="m0 0h79l11 1 1 1v56l9 3 23 12 19 13 4 2 9-6 28-16 9-5 3 1 20 34 14 24 8 16 1 3 96 1 13 2 8 4 8 9 2 5 1 6 1 253 8-3 5 1 9 4 5-1 16-10 7-1 7 9 15 27 2 4-1 4-9 7-11 6-3 2v21l-1 13 4 4 13 7 8 7-1 5-9 17-13 20-3 2-17-10-5-3h-5l-15 9-13 7-1 4-1 24-3 3-19 1h-20l-8-1-1-1-1-26-1-4-21-12-6-4-7 1-16 10-7 1-4-5-10-18-8-17 1-5 21-14v-31l-2-5-14-14-9-6-6-1h-13v187h58l9 2 9 8 4 8 1 4 1 57v310l-1 28-4 12h16l35 7 16 6 8 5v5l-5 4-12 5-19 5-25 4-26 3-50 3h-125l-40-2-43-5-25-5-12-3-11-6-4-4 1-4 5-4 15-6 37-8h17l-3-10-2-10-4 2-54 3-53 2-70 2-74 1h-41l-82-1-74-2-76-3-55-4-69-6-46-6-30-5-31-8-10-6-3-3 1-6 5-4 15-6 15-4h3l-5-13-6-14v-2l-22-1-12-2-12-4h-3l-7 11-10 11-9 11-4-1-14-11-13-11-14-11-10-8-2-4 7-10 11-12 7-10-1-7-8-17-4-14-3-8-11-2-29-5-3-2 1-9 8-52 3-9 16 2 26 3h2l2-5 8-11 9-10 8-10-1-7-12-33 1-3 11-5 50-19h5l10 23 5 12 2 3 4 1 14 1v-92l-17 2-38 2h-37l-56-2-41-1-4-4v-6l5-4 34-2 5-3 5-8 6-10 2-6-1-16-1-3-3 4h-46l-6-5 1-7 4-3 3-1h42l5 2 1-1 1-14v-32l-4 2h-48l-5-4v-6l3-3 6-2h20l18 1 7 2 1 1v7h2v-54h-48l-5-2-4-4 1-6 4-4 45-1 7 1 1-26 4-9 9-9 7-3h115v-50l-53 1 4 2-1 4-5 4-21 6-11 1h-38l-6-3-6-7-4-6-6-4-3-1-17-1h-11l-12-2-3-4v-5l5-5h40l9 3 7 9 2 6 13 2h4l-9-3-12-11-1-3-1-27v-20h-53l-4-4 1-7 6-3h41l7 2 1 2 1-7v-43l-2 1-15 1h-34l-5-4-1-7 4-4 3-1h30l20 1v-44l-6 1-46-1-5-4v-7l3-3 3-1h41l11 1 1-6 3-6 6-7 10-5 7-1h89l80 1 10 4 6 5 5 9 1 5h373l5 3 1 6-3 5-1 1h-371l-3-1v44h360l14 1 3 3v7l-3 4h-374v75h63l-1-9v-10l3-9 6-8 8-6 2-1 39-1h323l45-1 12-9 22-13-1-19v-26l1-16-8-5-11-6-21-13-8-4 1-5 8-13 14-25 14-24 6-11 2-2 6 1 18 10 17 10 8 4 4-1 15-11 16-9 11-5 8-4 1-55zm34 109-16 4-15 6-10 6-11 9-9 9-9 14-7 16-3 15-1 16 3 19 5 14 9 16 13 4 8 7 5 9 1 3 1 16 2 6h61l1-129 2-11 6-9 8-5 9-3 22-1 8-1-2-2-9-4-15-10-16-8-15-5-6-1zm167 86-14 4-14 9-7 6-8 11-6 12-15-2-10 2-10 4-10 8-7 11-3 8-1 8 3 2h228l3-1v-9l-4-11-7-9-7-6-12-5-4-1h-13l-12 3-3-9-4-8-7-9-8-7-12-7-14-4zm0 101-2 6v19l1 7 7 6 3 4h11l5-2 2-5v-34l-3-1zm156 143-11 4-5 1-34 1-10 2-8 11-6 13-2 10v11l3 12 5 10 9 10 7 6 14 6 8 2h13l12-4 11-6 9-8 6-9 5-13 1-4v-16l-4-13-6-10-12-12-3-4zm-1069 331-17 1-14 3-16 7-13 11-9 10-8 16-4 18v13l4 17 8 16 8 10 9 8 12 7 17 5 5 1 27 1-3-10-1-4-1-21-1-109zm134 168-60 1-9 1 8 16 7 17 3 4 29-2 93-7 97-4 31-1 4-8 4-11v-5l-23-1zm481 0-37 1 2 9 6 15 1 1 50 1 78 3 26 2 1-31-5-1z" fill="#6072FD"/>
<path transform="translate(344,588)" d="m0 0h1v39l61 1 10 5 8 9 2 6 1 7v169l-4 9-7 8-8 4-6 1h-58l1 207h58l1-103 1-29 4-11 5-5 6-5 6-3h233l9 4 7 6 3 6 2 7 1 135h400l1 46v69h-164l7 19 2 5 50 1 78 3 24 2 2 1v-20h1v92l-5 3-54 3-53 2-70 2-74 1h-41l-82-1-74-2-76-3-55-4-69-6-46-6-30-5-31-8-10-6-3-3 1-6 5-4 15-6 15-4h3l-5-13-6-14v-2l-22-1-12-2-12-4h-3l-7 11-10 11-9 11-4-1-14-11-13-11-14-11-10-8-2-4 7-10 11-12 7-10-1-7-8-17-4-14-3-8-11-2-29-5-3-2 1-9 8-52 3-9 16 2 26 3h2l2-5 8-11 9-10 8-10-1-7-12-33 1-3 11-5 50-19h5l10 23 5 12 2 3 4 1 14 1v-92l-17 2-38 2h-37l-56-2-41-1-4-4v-6l5-4 34-2 5-3 5-8 6-10 2-6-1-16-1-3-3 4h-46l-6-5 1-7 4-3 3-1h42l5 2 1-1 1-14v-32l-4 2h-48l-5-4v-6l3-3 6-2h20l18 1 7 2 1 1v7h2v-54h-48l-5-2-4-4 1-6 4-4 45-1 7 1 1-26 4-9 9-9 7-3h115v-38zm-4 413-17 1-14 3-16 7-13 11-9 10-8 16-4 18v13l4 17 8 16 8 10 9 8 12 7 17 5 5 1 27 1-3-10-1-4-1-21-1-109zm134 168-60 1-9 1 8 16 7 17 3 4 29-2 93-7 97-4 31-1 4-8 4-11v-5l-23-1z" fill="#B1CEFC"/>
<path transform="translate(518,513)" d="m0 0h503l1 1v303l-16 1h-483l-4-1-1-2z" fill="#3B3F8C"/>
<path transform="translate(1052,231)" d="m0 0h79l11 1 1 1v56l9 3 23 12 19 13 4 2 9-6 28-16 9-5 3 1 20 34 14 24 8 16 1 3 96 1 13 2 8 4 8 9 2 5 1 6 1 253 8-3 5 1 9 4 5-1 16-10 7-1 7 9 15 27 2 4-1 4-9 7-11 6-3 2v21l-1 13 4 4 13 7 8 7-1 5-9 17-13 20-3 2-17-10-5-3h-5l-15 9-13 7-1 4-1 24-3 3-19 1h-20l-8-1-1-1-1-26-1-4-21-12-6-4-7 1-16 10-7 1-4-5-10-18-8-17 1-5 21-14v-31l-2-5-14-14-9-6-6-1h-12l-1-2v-49l2-4 2-2-2-7-32-32-1-3h27v-20l8 6 2 3h11l5-2 1-4 1-34-3-1 11-3h4v-2h12l3-1 36-3 11-2 10-2 2-2-36-2v-1l52-1-2-13-5-10-8-9-12-6-7-2h-13l-7 2h-5l-7-15-7-10-8-7-12-7-14-4h-22l-14 4-14 9-6 5-8 11-7 13-15-2-10 2-10 4-9 7-7 11-3 8-1 8 2 1 177 1v1l-168 1-1 2-4 2 2 5 5 3 2 4-1 2-49 2-56-1v-1h55v-129l2-11 6-9 5-4 8-4 5-1 22-1 6-1-9-4-15-10-16-8-15-5-6-1h-20l-16 4-15 6-10 6-11 9-8 8-9 14-7 16-3 15-1 16 3 19 5 14 8 14v2h-105l4-5 13-8 15-9-1-19v-26l1-16-8-5-11-6-21-13-8-4 1-5 8-13 14-25 14-24 6-11 2-2 6 1 18 10 17 10 8 4 4-1 15-11 16-9 11-5 8-4 1-55zm357 439-11 4-5 1-34 1-10 2-8 11-6 13-2 10v11l3 12 5 10 9 10 7 6 14 6 8 2h13l12-4 11-6 9-8 6-9 5-13 1-4v-16l-4-13-6-10-12-12-3-4z" fill="#3CDAC8"/>
<path transform="translate(1335,897)" d="m0 0h1l1 9 1 38v310l-1 28-4 12h16l35 7 16 6 8 5v5l-5 4-12 5-19 5-25 4-26 3-50 3h-125l-40-2-43-5-25-5-12-3-11-6-4-4 1-4 5-4 15-6 37-8h17l-3-10-2-7v-176h1l1 38 1 10 3-1 2-5 1 3 6 2 5 9 3 2 7 1 3 3 3 5 3 3 1 4 3 1v3l5 2h6l2 3 27-1 3-1-14-2-13-1-5-3v-2l-6-2-6-5-4-8-2-8v-97l1-40 6-12 8-7 10-3 4-1h29l72-1 1-7 5-8 7-5 8-4 9-6 12-6 3-7 7-4 7-13 7-10h2l2-8 1-2h2l2-4 10-6h2z" fill="#6172FD"/>
<path transform="translate(915,484)" d="m0 0h109l9 2 6 4 7 8 4 9 1 16 1 5 6 1 62 1 20-1h23l-1-6-5-2-2-2v-4h2l1-3 2-1 12-1 158-1 37 2-2 4-9 1-5 2-22 2-24 2-1 1h-9l-3-1v2l-12 3-27 1-1 5v46l-21 1-6-1 4 6 8 7 22 22 2 7-3 3-1 3v51l-2-1h-78l-41-1-12-5-7-8-4-10v-75h-61l-1 1v246l-4 8-3 1-1 4-8 6-5 2h-371l-149-1-12-6-6-9-2-5v-291l-1-14v-10l3-9 6-8 8-6 2-1 39-1h323zm-397 29v302l1 2 4 1h483l16-1v-303l-1-1z" fill="#3BDAC8"/>
<path transform="translate(303,916)" d="m0 0h5l10 23 5 12 2 3 4 1 14 1v45l-3 1-17 1-14 3-16 7-13 11-8 9-8 16-4 18v13l4 17 8 16 8 10 8 7 12 7 17 5 5 1 28 1 4 8 8 7 10 6 13 4 20 2 8 14 8 19 2 3 29-2 93-7 97-4h30l-3 11-1 7-5 1h-28l-29 1-10 4-4 2v2l-5 5-3 6-1 7 423 1h11l-3-11-6-9-9-6-4-1-18-1-47-1v-6l1-4-3-7h49l78 3 24 2 2 1v-20h1v92l-5 3-54 3-53 2-70 2-74 1h-41l-82-1-74-2-76-3-55-4-69-6-46-6-30-5-31-8-10-6-3-3 1-6 5-4 15-6 15-4h3l-5-13-6-14v-2l-22-1-12-2-12-4h-3l-7 11-10 11-9 11-4-1-14-11-13-11-14-11-10-8-2-4 7-10 11-12 7-10-1-7-8-17-4-14-3-8-11-2-29-5-3-2 1-9 8-52 3-9 16 2 26 3h2l2-5 8-11 9-10 8-10-1-7-12-33 1-3 11-5 29-11z" fill="#EDECF6"/>
<path transform="translate(235,357)" d="m0 0h89l80 1 10 4 6 5 5 9 1 5h373l5 3 1 6-3 5-1 1h-371l-3-1v44h360l14 1 3 3v7l-3 4h-374v75l3 1h-3v25l-6 12-8 7-4 2-26 1h-39l-1 4v-4l-53 1 4 2-1 4-5 4-21 6-11 1h-38l-6-3-6-7-4-6-6-4-3-1-17-1h-11l-12-2-3-4v-5l5-5h40l9 3 7 9 2 6 13 2h4l-9-3-12-11-1-3-1-27v-20h-53l-4-4 1-7 6-3h41l7 2 1 2 1-7v-43l-2 1-15 1h-34l-5-4-1-7 4-4 3-1h30l20 1v-44l-6 1-46-1-5-4v-7l3-3 3-1h41l11 1 1-6 3-6 6-7 10-5z" fill="#3BD9C8"/>
<path transform="translate(1223,676)" d="m0 0h32l1 1v188h58l9 2 9 8 4 8 1 4v19h-1l-1-5-4 1-9 5-2 3h-2l-3 10-4 4-4 6-8 14-7 4-2 6-6 4-5 2-10 6-6 4-9 5-3 5-2 4-2 6-3 1-70 1h-28l-12 3-6 4-6 8-3 7-1 40v97l4 13 4 5 9 5 3 3 2 1 29 3-2 2-9 1-21 1-2-3h-6l-5-3v-3l-4-1-2-5-4-4-3-5-9-2-4-5-2-6-6-2-1-2-2 4-4 2-1-11-1-41v-43h-400l-1-2v-48l3-1h399l-1-25v-83l2-13 6-9 8-7 5-2 120-1v-187z" fill="#5547FE"/>
<path transform="translate(426,897)" d="m0 0h233l9 4 7 6 3 6 2 7 1 142-3 13-7 8-10 4-31 2h-146l-53-1-13-4-6-4-6-9-3-8 1-113 1-29 4-11 5-5 6-5z" fill="#3BDAC8"/>
<path transform="translate(430,529)" d="m0 0h60l1 5v291l6 12 8 5 5 2 169 1 45 2v2l7 1v2l-9 5h-2l1 6-3 3-4 3-7 3-2 3-14 3-15 2-1 2-12 4-11 4h-14l-25 5-34 1h-150l-11 4-10 9-3 6-1 5v133l-1 1h-58l-1-1v-207l58-1 9-2 8-6 5-7 2-6v-169l-2-10-4-7-7-6-7-3-49-1-12-1-1-50 65-2 9-6 6-9 2-5 1-25z" fill="#5547FE"/>
<path transform="translate(1052,231)" d="m0 0h79l11 1 1 1v56l9 3 23 12 19 13 4 2 9-6 28-16 9-5 3 1 20 34 14 24 8 16v3l-8 1h-120v-1l6-1-9-4-15-10-16-8-15-5-6-1h-20l-16 4-15 6-10 6-11 9-8 8-9 14-7 16-3 15-1 16 3 19 5 14 8 14v2h-105l4-5 13-8 15-9-1-19v-26l1-16-8-5-11-6-21-13-8-4 1-5 8-13 14-25 14-24 6-11 2-2 6 1 18 10 17 10 8 4 4-1 15-11 16-9 11-5 8-4 1-55z" fill="#EDECF6"/>
<path transform="translate(1142,992)" d="m0 0h138l12 6 7 8 3 8 1 11v128l-3 8-6 8-9 6-6 2h-134l-10-2-10-6-5-7-3-11v-97l1-40 6-12 8-7z" fill="#3DA5E7"/>
<path transform="translate(250,383)" d="m0 0h135l16 1v165l-2 2h-163l-3-2 1-165z" fill="#3B3F8C"/>
<path transform="translate(344,588)" d="m0 0h1v39l61 1 10 5 8 9 2 6 1 7v169l-4 9-7 8-8 4-6 1-60 1-1 2-1-1h-96l-13-1-5-2-4-4-2-1v-2l-3-1v-2l-3-1-1-7-1-6-3-3v-9l1-3h2l-1-4 4-7h2v-8l4-6 6-3 1-2h3v-8l2-9 4-5-7-5-1-4-1-9 1-2 12-4 3-6v-1l-4 6-5 2 5-8 2-1 1-11-2-1 2-2 1-4 4-7 1-5-10-1-1 2-7-2v8l-2-4v-2l-9-4-1-3 7-8 7-4 9-1 9 1h14l5 1 12 1 2 1h6l5-1 2-6 4-2 1 19-15 9-3 2-5-1v-2l-6-2-4-3h-3l-10 18-3 5 1 5 14 8-1 22-12 6-3 1 4 11 6 9 3 5v2l7-1 9-6 5 1 10 6 6 4v17l31 1v-19l12-7 4-3 6 1 8 5 2 2h3l12-21 3-7-5-2-11-6v-21l15-9-1-5-11-19-3-3-4 2-11 6-5-2-4-3v-104z" fill="#4BD2DB"/>
<path transform="translate(1328,509)" d="m0 0 39 2-2 4-9 1-5 2-22 2-24 2-1 1h-9l-3-1v2l-12 3-27 1-1 5v46l-21 1-6-1 4 6 8 7 22 22 2 7-3 3-1 3v51l-2-1h-78l-41-1-12-5-7-8-4-10v-75h-62l-1-27v-21l1-1 69 1 20-1h23l-1-6-5-2-2-2v-4h2l1-3 2-1 12-1z" fill="#38B9D7"/>
<path transform="translate(228,627)" d="m0 0h116v66l6 4 6-2 9-6 4 2 6 9 8 14-1 4-14 8v21l10 5 5 3-1 6-6 9-7 13-4 1-6-5-6-3-5 1-9 6-5 2-1 19h-31l-1-1v-17l-14-8-2-2-5 1-10 6-5-1-9-15-4-8v-4l12-7h3v-22l-13-7-2-2 1-6 13-22 4 1 7 4 2 1v2l7-1 9-6 6-3-1-18-2 1-3 6-5 2h-6l-2-1-17-1v-2l-10 1h-10l-4-1-10 2-6 4-3 4h-2l1 5 8 3 1 3v-5l8 2v-2l9 1 2 1v5l-4 7-1 5-2 1 1 1v11l-3 1-2 5-1 2 5-5 2-10 2 3-2 9-3 4-9 3h-3v8l2 5v2l8 5-5 5-2 9-1 8h-3l-2 4-6 3-2 4-1 8-2 1-3 6v4h-2v12l3 3 1 8 1 5 5 4v2l5 2 1 2-5-2-8-6-5-8-2-22-1-3-3 4h-46l-6-5 1-7 4-3 3-1h42l5 2 1-1 1-14v-32l-4 2h-48l-5-4v-6l3-3 6-2h20l18 1 7 2 1 1v7h2v-54h-48l-5-2-4-4 1-6 4-4 45-1 7 1 1-26 4-9 9-9z" fill="#74D7EB"/>
<path transform="translate(681 1e3)" d="m0 0h313l87 1v49h-400l-1-1v-48z" fill="#3B3F8C"/>
<path transform="translate(1281,370)" d="m0 0 105 1 13 2 8 4 8 9 2 5 1 6v242h-1l-1-230-1-16-3-6-6-7-5-3-7-1-5 2-4 3-13 2-9 3-23 3-5 3-10 1v4l-8 3-1 4 5 3-2 4-2 2-2 4-1 1h-8l-9-1v2l-8 3-7 1v3l9 2 2 4-10-3-8-2h-22l-14 4-14 9-6 5-8 11-7 13-15-2-10 2-10 4-9 7-7 11-3 8-1 8 2 1 177 1v1l-168 1-1 2-4 2 2 5 5 3 2 4-1 2-49 2-56-1v-1h55v-129l2-11 6-9 5-4 8-4 5-1z" fill="#74D7EB"/>
<path transform="translate(491,529)" d="m0 0h27l1 288 410 1v1l-104 1-5 1 5 1-1 3-2 1v2h-3l-2 4-7 4 1 3 2 1v2l26 1 137 1 54 1v1h-371l-149-1-12-6-6-9-2-5v-146z" fill="#3DA3E6"/>
<path transform="translate(1465,640)" d="m0 0 5 1 7 10 14 25 2 4-1 4-9 7-11 6-3 2v21l-1 13 4 4 13 7 8 7-1 5-9 17-13 20-3 2-17-10-5-3h-5l-15 9-13 7-1 4-1 24-3 3-19 1h-20l-8-1-1-1-1-26-1-4-21-12-6-4-7 1-16 10-7 1-4-5-10-18-8-17 1-5 21-14v-31l-2-5-14-14-7-5 4-2h60l6 3-8 14-4 11-1 6v11l3 12 5 10 9 10 6 5 14 6 8 2h13l12-4 11-6 8-7 6-9 5-13 1-4v-16l-4-13-6-10-12-12-2-4 5-10 3-10 8-3 5 1 9 4 5-1 16-10z" fill="#EDECF6"/>
<path transform="translate(1197,1014)" d="m0 0h26l13 4 14 7 10 9 9 10 8 16 3 11v24l-6 21-10 14-3 4h-2l-1 3-10 7-16 8-15 3h-13l-15-3-16-7-9-7-7-6-9-13-5-12-3-10-1-7v-12l3-17 8-16 9-11 11-9 10-6 12-4z" fill="#3DB8E1"/>
<path transform="translate(235,357)" d="m0 0h89l80 1 10 4 6 5 5 9 1 5-2-1-4-9-5-5-4-2-4 5-9 1-15 4-12 2-27 3-5 1-17 1-4 1h-68v2h-16v165l3 2 46 1v3l1 4 9 2 2 4-9 3v3h-4v2l3-1 2 1v2h16l40 1v1l-53 1 4 2-1 4-5 4-21 6-11 1h-38l-6-3-6-7-4-6-6-4-3-1-17-1h-11l-12-2-3-4v-5l5-5h40l9 3 7 9 2 6 13 2h4l-9-3-12-11-1-3-1-27v-20h-53l-4-4 1-7 6-3h41l7 2 1 2 1-7v-43l-2 1-15 1h-34l-5-4-1-7 4-4 3-1h30l20 1v-44l-6 1-46-1-5-4v-7l3-3 3-1h41l11 1 1-6 3-6 6-7 10-5z" fill="#74D7EB"/>
<path transform="translate(915,484)" d="m0 0h109l9 2 6 4 7 8 4 9 1 16 1 6h-3l-1-4-7 2-4-5-1-3-4-4v-2l-3-1-4-4-6-1-25 1-5 1-17 1-2-1-10 1-1 1h6v1l-447 1v16h-27v5h-1l-1-14v-10l3-9 6-8 8-6 2-1 39-1h323z" fill="#74D7EB"/>
<path transform="translate(1223,676)" d="m0 0h32l1 1v188h58l9 2 9 8 4 8 1 4v19h-1v-12l-74 1-4 2-4 6-3 3-7 2h-69l-8-3-4-5-4-4-13-2-42-1-17-1-4-2v-7l6-9 8-7 5-2 120-1v-187z" fill="#4D4EA2"/>
<path transform="translate(426,897)" d="m0 0h65l2 1 9 1 1 5 3 4-2 7-2 2-1 7-6 3v11l4 2 3 6-12 11-8 7-6 5h-2v2l-6 4-5 5-10 9h-2l2 5 11 10 5 3 5 5 4 3v2l4 2 16 14 3 2v-24l-5-4-1-6 2-2 11 1 4 1 6-3 7-17 10-29 4-10 4-1-1 10-13 49-9 34-4 13 1 7-2 1h-77l-5 1h-26l-4-1 1-105 1-29 4-11 5-5 6-5z" fill="#3D9BE8"/>
<path transform="translate(430,529)" d="m0 0h60l1 11-1 37-1 135-2 6h-1l-1-8h-2l-1-11-3-4-1-7-3 3-3 9-3 1-2-1-1-7h-3v-2l-3-1-4-6-2-2v-3h2l-1-5-2 1-2 4-4 1-3-3-1-4-1-5 3-6 1-1-2-7v-9h-6v-2l-3-1-2-4h-5l-10-6v-2l-11-3h-28l-2 1h-20l-12-1-1-50 65-2 9-6 6-9 2-5 1-25z" fill="#4B2FF9"/>
<path transform="translate(1087,1292)" d="m0 0 7 6 4 3 7 2h209l9-3 9-8 1 2h16l35 7 16 6 8 5v5l-5 4-12 5-19 5-25 4-26 3-50 3h-125l-40-2-43-5-25-5-12-3-11-6-4-4 1-4 5-4 15-6 37-8h17z" fill="#EDECF6"/>
<path transform="translate(493,898)" d="m0 0h138l9 1-4 2-8-1 1 3-5 1 3 5-1 6-3 4h-4l-2 4-5 3-7 8-4 4-1 2-10 3-3-1-1 2h-2l2 5 10 9 11 9 12 11 11 9 3 2-1 5-10 8-14 12-11 10-8 7-4 4-3-1v-22l4-5 11-9 7-6-2-4-9-7-12-10-1-15-4 1-1 8-2-1v-5h-2l-1-10 1-12v-4h-2l-4 16-23 85-5 17h-21l-1-4 7-25 6-22 14-53 1-6-4 1-3 10-10 29-8 18-6 3-14-2-2 1 1 6 5 4v25l-5-3-9-8-3-2v-2l-4-2-8-7-4-3v-2l-5-2-13-12v-4l11-9 3-3h2l1-3 4-3h2v-2l10-8 11-10 6-5-2-3v-3l-4-1-1-4v-8l6-3 1-7 3-3 1-6-4-5v-3l-8-1z" fill="#3CAFE3"/>
<path transform="translate(302,669)" d="m0 0h30l1 1v17l13 7 4 3 6-2 9-6 4 2 6 9 8 14-1 4-14 8v21l10 5 5 3-1 6-6 9-7 13-4 1-6-5-6-3-5 1-9 6-5 2-1 19h-31l-1-1v-17l-14-8-2-2-5 1-10 6-5-1-9-15-4-8v-4l12-7h3v-22l-13-7-2-2 1-6 13-22 4 1 7 4 2 1v2l7-1 9-6 6-3v-17z" fill="#FBFBFC"/>
<path transform="translate(628,900)" d="m0 0h11l3 2 1-2v2l5-1 11 3 5 4h-9l-10-1v3h-2v2l6-1-2 4-2 3h3v2h-3v3l5 1 5 3 1 2 4-1 6-1 1-2 5 2 3 17-1 12-1 6 2 9 3 7v18l-5-1-2 9-5-3-15 3-2 2h-3l-1 4h-3l-2 6-6 5-7 8-3 6-8 7-5 5-7 4-7 2-18 2h-29l-19 2-11-2 1-3 16-1 4-17 17-63 10-36 1-2h2l1 10-1 7 1 7-1 2h2l1-3v8l1 1v-8l2-2 3 1 1 2 1 13 14 12 9 7-2 4-15 13-5 5v22l4-2 8-8 11-9 13-12 13-10 1-4-4-2-28-24-10-9-7-6v-4h2l1-3 5 1 4-2h4v-4l5-3 7-8 6-4 1-2 4-1 3-6-1-4-2-4 5-2z" fill="#3CC5D2"/>
<path transform="translate(344,588)" d="m0 0h1v39l61 1 10 5 8 9 2 6 1 7v169l-4 9-1-4 3-8v-19l-1-67-1-10-1-5-2-13h-2l-2 5-7 10-2 2-3 1-3 9h-3l-2 6h-2l3 10 2 3v8l2 1-2 6-3 4-2 7-4 9-4 5h-2l-1 2-5 5-6 4-11 8-5 3-5 1-4 1-4-3-1-21v-8l3-5 4-5 6 1 8 5 2 2h3l12-21 3-7-5-2-11-6v-21l15-9-1-5-11-19-3-3-4 2-11 6-5-2-4-3v-104z" fill="#38B9D7"/>
<path transform="translate(344,846)" d="m0 0h36l1 158 23 1v48l-1 1h-58l-1-1z" fill="#3B3F8C"/>
<path transform="translate(742,1213)" d="m0 0h39l218 1 10 7 6 9 1 2v8h-167l-168-1-15-3-1-2h3v-3l7-3 6-5 4-6 3-2 5-1z" fill="#8DB8FD"/>
<path transform="translate(418,707)" d="m0 0h2l2 6 1 10 1 2 1 10 1 67v19l-5 15-8 7-5 2-6 1-59 1v-2l-12 1h-51l-23-1 3-3 6 1h7l8-5h2v-2l8 1 3-1 1-2 11 2-3-9 1-4-4-2-2-6v-8l-4-2-5-2 1-6 2-5v-5l-4-2-2-2h-10l-4 1v-3l9-6 5 1 10 6 6 4v17l31 1v-19l12-7h3l-4 5-1 5v11l1 15 3 2 9-2 6-4 11-8 5-3 10-10 3-4 2-6 3-8 2-3 2-6-1-1-2-10-3-9v-2l2-1 2-6 5-7 1-3 4-1 8-11z" fill="#3BDAC8"/>
<path transform="translate(1083,1272)" d="m0 0h252l2 1v9l-4 10-7 7-7 4-5 1h-209l-8-3-8-6-1-3h-2l-4-11z" fill="#4D4FA4"/>
<path transform="translate(681,1055)" d="m0 0h96v1h-93l-2 16-1 5h-2l1 4-3 10-6 11-3 5-10 7-11 3-8 1-37 1-23-1-78-1-31-1-24-2-17-4-8-4-7-8-4-7-3-14 1-4 6 8 12 5 5 1 53 1h150l27-2 11-5 6-8z" fill="#8DB8FD"/>
<path transform="translate(1195,400)" d="m0 0h14l19 2v1l-5 1 8 2v3l7 3v2l9 4v3l2 2-1 5-13 5-11 8-5 4-8 11-7 13-15-2-10 2-10 4-9 7-7 11-3 8-1 8 2 1 177 1v1l-168 1-1 2-4 2 2 5 5 3 2 4-1 2-49 2-56-1v-1h55v-3l5-4 4-15 1-3 2-17 4-14 4-20 3-11 5-6 10-6 9-6 20-6 6-14 5-3z" fill="#4DC5E1"/>
<path transform="translate(624,818)" d="m0 0h305v1l-104 1-5 1 5 1-1 3-2 1v2h-3l-2 4-7 4 1 3 2 1v2l26 1 137 1v1h-185l-70-1h-129l-39-1-14-1-6-2v-3l4-2h4v-3l11-7 6-2 18-3 7-1z" fill="#3CAEE4"/>
<path transform="translate(1051,529)" d="m0 0 69 1 20-1h48l7 2v3l3 2-4 7 3 1-6 7h3v7l-1 2-6 2-2 1 2 3-8 3-13 6-19 1-3 1h-26l-5 1h-62l-1-27v-21z" fill="#319AC9"/>
<path transform="translate(1223,676)" d="m0 0h32l1 1-1 188-15 2h-6l-1 1h-10l-1-1v-190z" fill="#3B3F8C"/>
<path transform="translate(493,898)" d="m0 0h41l15 1-4 2 3 6 5 1v3l-5 4-5 6v2l3 2v1h10l2 2h7l5 2v1l-23 1-3 12-1-3-4 1-3 10-10 29-8 18-6 3-14-2-2 1 1 6 5 4v25l-5-3-9-8-3-2v-2l-4-2-8-7-4-3v-2l-5-2-13-12v-4l11-9 3-3h2l1-3 4-3h2v-2l10-8 11-10 6-5-2-3v-3l-4-1-1-4v-8l6-3 1-7 3-3 1-6-4-5v-3l-8-1z" fill="#3DA6E6"/>
<path transform="translate(541,941)" d="m0 0h2l-1 10-13 49-9 34-4 13 1 7-2 1h-77l-5 1h-26l-4-1 1-51 10-1h35l3-7 4 1 11 9 8 7 3 2v2l4 2 16 14 3 2v-24l-5-4-1-6 2-2 11 1 4 1 6-3 7-17 10-29 4-10z" fill="#319AC9"/>
<path transform="translate(541,897)" d="m0 0h118l9 4 7 6 3 6 2 7 1 142-3 13-7 8-10 4-31 2h-146l-53-1-13-4-6-4-6-9-3-8v-8h42l24 1 11 1 7 1h21l3 1 1 4 9 1 2 1v2h6l9-2 8 4 1 5 4 1-1 2 5 2 1 4 8 1 4 1h54l35-1 9-3 6-4 4-6 2-14v-54l-1-25-5-13v-7l1-7 1-8-3-16-4-1-8 4-4-1-3-3-4-2-4-1 1-3h3v-2h-3l2-4 2-3-6 1v-2h2v-3h17l-9-4-11-1-3-1v-1l-8-1h-35l-55-1z" fill="#4CC6E0"/>
<path transform="translate(427,381)" d="m0 0h372l5 3 1 6-3 5-1 1h-371l-2-1z" fill="#FCFCFC"/>
<path transform="translate(428,439)" d="m0 0h359l14 1 3 3v7l-3 4h-372z" fill="#FCFCFC"/>
<path transform="translate(1394,375)" d="m0 0 9 2 5 4v2l3 1 4 6 1 3 1 16v161h-1l-1-96-4-5-3-8-2-1v5l-2 3h-2l1-6-4-2-2-6-1-7-1-4h-2l-1-2-5-2-3-6v-4h-2l-1 3-4-3v-2l-3 1-1 3h-2l-2 4v-6l-11 1-4-2-9 2-7-1-5-4-12 1-4-1-5 1-8-1-1-1-10-2-1-2 5-1v-2l6-1 3 1h8l2-4v-2h3l1-4-5-2 2-4-2-1 4-3 6-2v-2l10-2 5-3 23-3 9-3 13-2 5-4z" fill="#5CDCDC"/>
<path transform="translate(1197,1014)" d="m0 0h26l13 4 14 7 10 9 9 10 8 16 3 11v24l-6 21-10 14-3 4h-2l-1 3-10 7-16 8-15 3h-13l-15-3-16-7-9-7-7-6-9-13-5-12-3-10-1-7v-12l3-17 8-16 9-11 11-9 10-6 12-4zm2 13-15 5-13 9-8 9-7 12-3 10-1 7v10l4 16 5 10 8 10 8 7 4 1v2l15 6 10 2h8l15-4 15-8 10-9 9-14 4-13 1-7v-9l-2-10-5-13-8-10-7-7-9-6-13-5-5-1z" fill="#F9FBFC"/>
<path transform="translate(232,387)" d="m0 0h2v162l3 2 46 1v3l1 4 9 2 2 4-9 3v3h-4v2l3-1 2 1v2h16l40 1v1l-53 1 4 2-1 4-5 4-21 6-11 1h-38l-6-3-6-7-4-6-6-4-3-1-17-1h-11l-12-2-3-4v-5l5-5h40l9 3 7 9 2 6 13 2 8 1v-2l-10-3-8-5-2-2-2-9 3-6h2v-7l4-21 3-4 2-8 1-13 2-2 1-7v-24l-2-9-2-3-2 1-1-3-3 7h-3l1-16 5-2 4-2-2 6 3-6h2v-9l1-7z" fill="#4CD2DB"/>
<path transform="translate(1010,506)" d="m0 0h9l8 2 6 7 4 4 4 7h4l1-2h3v5l2 1v295l-4 8-2 1 1-4 2-3v-108l-1-49-1-6-5 1v7h-2l-3-10-2-14-1-3-1 6h-4l-2 6v3h-2l-1 40h-1l-1-186-480-1v-1l418-1 1-2 11-1 2 1 16-1 5-1z" fill="#32BFC7"/>
<path transform="translate(1248,1048)" d="m0 0 3 4 6 10 7 14 1 6 1-10h1l1 7v9l-3 14-4 10-9 12-11 9-15 7-12 3h-8l-10-2-15-6v-2l-5-2-1-4-4-6v-2l5-1 3-6h7l1-2 7-1 6 4 8-2 8-5 5-5h2v-5h2l1-4h2l2-4 10-14v-2h-2l-2 4-9 10-9 11-13 14-8-6-15-13-1-5 8-9 5 2 9 7 5-5 12-13 4-5 1-3h-2l1-3 4 1-3-4 4-1 5-1 3-1 2 1h5v-3h4z" fill="#4DC6E1"/>
<path transform="translate(491,529)" d="m0 0h27v259h-1l-1-58-1-29-1-3-7 2v2l-3 1-6-5v2h-3l-2 6-1 20-1 43h-1v-90z" fill="#3F8EEC"/>
<path transform="translate(966,484)" d="m0 0h58l9 2 6 4 7 8 4 9 1 16 1 6h-3l-1-4-7 2-4-5-1-3-4-4v-2l-3-1-4-4-6-1-25 1-5 1-17 1-2-1-10 1-1 1h6v1h-114l-77-1-1-3-4 1 1-2 5 1 2-1h8l5-2 11-1 3 1h7l3-1 26-1 17-2 21-1 16-3v-1l10-1 5 1 16-2v-7l1-1 40-1z" fill="#5CDCDC"/>
<path transform="translate(1286,1055)" d="m0 0 4 2 5 12 1 5 2 25 1 9 2 10v42l-7 9-9 6-2 1h-29l-27-1-7-2v-2l-4-2 4-6h3v-2l3-1 2-6 4-2 2-2 16-8 8-6 1-2h2l2-4 10-14 6-21 1-24 3-3v-3l2-9z" fill="#39D0CF"/>
<path transform="translate(207,822)" d="m0 0h1l2 8 4 6 10 7 7 3 17 1h92 4v48h-1v-31l-17 2-38 2h-37l-56-2-41-1-4-4v-6l5-4 34-2 5-3 5-8 6-10z" fill="#B1CEFC"/>
<path transform="translate(300,668)" d="m0 0h1l1 19-15 9-3 2-5-1v-2l-6-2-4-3h-3l-10 18-3 5 1 5 14 8-1 22-12 6-3 1 4 11 6 9 3 5v2h6l3 1 4-1h8l6 5 1 7-3 5-1 4h-8l-10-2h-3v-2l-5-2-3-3-1-4-2-1-1 4-2 4v-8l-2-1-3-6-4-14-2-2-1-7h-5l-2-3 2-2-7-5-1-4-1-9 1-2 12-4 3-6v-1l-4 6-5 2 5-8 2-1 1-11-2-1 2-2 1-4 4-7 1-5-10-1-1 2-7-2v8l-2-4v-2l-9-4-1-3 7-8 7-4 9-1 9 1h14l5 1 12 1 2 1h6l5-1 2-6z" fill="#4CC6E1"/>
<path transform="translate(1263,992)" d="m0 0h17l12 6 7 8 3 8 1 11v128l-2 4-1-39-2-10-1-14-3-25-5-12-3-1-2 9v3l-3 3h-2l-5-16-6-11-11-12-7-6-2-2-2-3-5-2 4-1h2l-2-1v-2l-4-2-8-6-1-8-1-4 4-1 1-1z" fill="#4BC5E0"/>
<path transform="translate(1289,421)" d="m0 0 6 1 8 1 1 1 10 1 4-1 5 1 10-1 5 4 7 1 10-2 1 2h8l5-1 1 5 1-2h2l1-4h3v2l4 2 1-2h2l3 9 6 3v2h2l3 6 1 9 2 3h3l-2 7h-4l-2-3h-3l-1 4-5-1-7-2-4 1-3 7-3-1 1 6-11-7-12-4h-13l-7 2h-5l-7-15-7-10-8-7-8-5-2-4-9-2-1-4 1-1z" fill="#4BD2DB"/>
<path transform="translate(1114,578)" d="m0 0 3 1h33l1 2 10 3-2 1 3 3 11 3v5l-6 4-5 9-4 2-1 4-4 6h-2v2l-2 1 1 4-2 2-2 5-1 10-1 2h2l-1 10-5 3-8-2-2-6-4-6-5-5-2 3-1 17h2l3 3 10 2 12 3-2 1v3h31l10-1h3l4-1 6 2 4-1 2 1 17 2v2h-43l-41-1-12-5-7-8-4-10v-74z" fill="#3DB7E2"/>
<path transform="translate(707,818)" d="m0 0h222v1l-104 1-5 1 5 1-1 3-2 1v2h-3l-2 4-7 4 1 3 2 1v2l26 1 137 1v1h-185l-139-2v-1l18-4 28-2 6-2v-2h3v2l5-1v-2l-3-1v-4l-11-3v-2h-13l-2-2z" fill="#4BC5E0"/>
<path transform="translate(1328,509)" d="m0 0 39 2-2 4-9 1-5 2-22 2-24 2-1 1h-9l-3-1v2l-12 3-27 1-1 5-1 17-7-3-7-8-10-6-10-3-12-1-42-1-1-5-5-2-2-2v-4h2l1-3 2-1 12-1z" fill="#39B9D7"/>
<path transform="translate(430,529)" d="m0 0h60l1 11-1 37h-84l12-8 6-9 2-5 1-25z" fill="#3C418E"/>
<path transform="translate(929,818)" d="m0 0h50v1l-17 1v2l-12 3 1 4-17 4-8 3-2 2 4 3 1 1 16 1v1h-112l-22-1 2-1v-2l-4-1h2v-2l-2-1 9-6 1-2h3l-1-3-3-2 2-1-2-2 7-1z" fill="#39D0CF"/>
<path transform="translate(426,897)" d="m0 0h65v1l-32 1-3 1-1 12-2 3-2 7-3 6-2 2-1 8-4 12-3 1v2h-2l-2 5-4 8-3 3-4 9-5 2-1-2-2 4-4 3h-2l-4 19h-1v-54l1-29 4-11 5-5 6-5z" fill="#3F8EEC"/>
<path transform="translate(1163,528)" d="m0 0h42l12 1 12 4 10 7 5 6 5 3 1-3 1 4v28h-29l-1 2h-104l-2-1v-2l8-1h21l3-1 19-1 14-7 6-2-2-2 3-1 1-2h5v-8l-3-1 6-7-2-1 1-4 2-3-3-2-1-3-5-1-25-1z" fill="#2FA9CD"/>
<path transform="translate(1082,887)" d="m0 0 1 3 4 1 17 1 42 1 13 2 10 10 6 2 52 1-2 3-14 1h-14l-3 1-20-1-7-3-4-4v-2l-5-2-18 1-8 4-2-1 1-1-4 1-1 2 3 1-3 1v3l5-1 1 3-3 7-3 1 1 5-4 4h-2v2h-2v-2l-5 3v4l-3 2h-3l-2 5-9 6h-3l-2-1-3 9-2 11-1 8-3 8h-1l-1-7v-83z" fill="#4B30FA"/>
<path transform="translate(1051,529)" d="m0 0 63 1v46l-1 2h-62l-1-27v-21z" fill="#3B3F8D"/>
<path transform="translate(569,933)" d="m0 0h2l1 10-1 7 1 7-1 2h2l1-3v8l1 1v-8l2-2 3 1 1 2 1 13 14 12 9 7-2 4-15 13-6 4-1 20-3-3-2-7-4-2-13 14-8 13h-2v2l-4 1-1 3h-4v2l-4 1h-16l1-3 16-1 4-17 17-63 10-36z" fill="#2FA9CD"/>
<path transform="translate(631,976)" d="m0 0 5 2 1 4 3 1 2 6-1 4h3v3h2v5h3l2 4-5 1-1 4h-3l-2 6-6 5-7 8-3 6-8 7-5 5-7 4-7 2-18 2h-29l-19 2-8-1v-1l17-1v-2l4-1 3-3h2v-2l4-4 6-10 13-14 5 2 3 9 1-18 2-1v24l4-2 8-8 11-9 13-12 13-10 1-4-4-2v-9h2z" fill="#32C4C7"/>
<path transform="translate(312,706)" d="m0 0h11l10 4 8 7 5 8 2 7v9l-5 13h-2l-2 4-4 2v2l-12 5-9 1-11-4-8-6-6-10-2-5v-14l6-12 5-4 1-2 5-3z" fill="#4CC6E1"/>
<path transform="translate(1222,582)" d="m0 0 5 1 12 11 20 20 2 7-3 3-1 3v51l-2-1-35-1 1-57 1-13-1-20z" fill="#31C3C7"/>
<path transform="translate(344,588)" d="m0 0h1v39l37 1 1 10v58l4 14-2 6-1-2h-2l-12-21-3-3-4 2-11 6-5-2-4-3v-104z" fill="#2FA9CD"/>
<path transform="translate(1152,1138)" d="m0 0 5 1v2l5 2 4 3 11 6 7 2 7 1v2h18l6 1h12l-1 3h-3v2h-3l-2 5v2l2 1v2l7 1 52 2v1h-134l-10-2-10-6-4-5-2-13 2-4 7-3 12 1 5-1 1-2 2 1v-2h2l1-2z" fill="#4AC2E1"/>
<path transform="translate(549,931)" d="m0 0h20l-1 7-19 70-11 41-1 2h-21l-1-4 7-25 6-22 14-53 5-15z" fill="#F9FAFC"/>
<path transform="translate(466,1056)" d="m0 0 14 1 7 1h21l3 1 1 4 9 1 2 1v2h6l9-2 8 4 1 5 4 1-1 2 5 2 1 4 8 1 4 2h-72l-45-3-10-2-4-2 1-2 7-1-4-4 4-4-4-2 4-4-1-3 10-2z" fill="#4BD1DB"/>
<path transform="translate(1052,231)" d="m0 0h79l11 1 1 1v56l9 3 23 12 19 13 4 2 9-6 28-16 9-5 3 1 20 34 14 24 8 16v3h-8l-3-2-3-3-1-4h-3l-5-5-7-4-4-7v-2l-7-2-6-7-1-3-12-3-5 3-7 2h-19l4-4 4-1 7-4 17 1 4-1h8l7 1v-3l-4-4 5 1 6 8 8 16h1l-2-5-6-12-3-8-10-12-3-1-9 3-15 7-13 5-7 3-9-3-14-9-4-3v-2l-4-1-12-6-11-8h-3l-3-9v-15l2 3v-7l-1-14v-7l-2-3-22-4h-40l-15 1-6 8-1 9h-1l-1-20z" fill="#FCFCFC"/>
<path transform="translate(628,900)" d="m0 0h11l3 2 1-2v2l5-1 11 3 5 4h-9l-10-1v3h-2v2l6-1-2 4-2 3h3v2h-3v3l2 1-1 5-5 5-3 9-5 8-3 5-2 2 2 3-2 2h-3v3h2l4 12-1 5v3l-5-2-11-10-11-9-12-11-7-6v-4h2l1-3 5 1 4-2h4v-4l5-3 7-8 6-4 1-2 4-1 3-6-1-4-2-4 5-2z" fill="#38B9D7"/>
<path transform="translate(514,696)" d="m0 0h1l1 5 1 29 1 58v28h-1l-2-27-1-6-3-1-3 3-2 8h-2l-1-5v-1l-3 6-6 7-1 11-1 3-1 11h-1v-56l1-45 1-20 3-6 1 2h2v-2l4 2 3 2h2v-2l3-2h4z" fill="#3D9AE8"/>
<path transform="translate(381,718)" d="m0 0h3l1 7h-2l1 7-1 7h2l2 2h3l5 1 3 9 1 2v8l2 1-2 6-3 4-2 7-4 9-4 5h-2l-1 2-5 5-6 4-11 8-5 3-5 1-4 1-4-3-1-21v-8l3-5 4-5 6 1 8 5 2 2h3l12-21 3-7-5-2-11-6v-21l10-6z" fill="#32C3C7"/>
<path transform="translate(410,363)" d="m0 0 6 3 7 8 2 6 2 1 1 3v55l1 2v13h-2v75h-1l-1-12-1-69h-5l-3-4-1-11 1-8-4-8v-2l-3-1-2-10-3-7-2 1-1-14h-115l-36-1v-1l70-1v-1l19-1 23-3 11-1 22-5 3-1h9l2-4z" fill="#5DD8DE"/>
<path transform="translate(155,557)" d="m0 0h40l9 3 7 9 2 6 13 2h56l11 2 1 4-6 5-21 6-11 1h-38l-6-3-6-7-4-6-6-4-3-1-17-1h-11l-12-2-3-4v-5z" fill="#B2CFFC"/>
<path transform="translate(938,608)" d="m0 0h30l2 2v5l-1 1h-306v-7z" fill="#2391E6"/>
<path transform="translate(541,941)" d="m0 0h2l-1 10-13 49-9 34-4 13 1 7-2 1h-77l-5 1h-26l-3-2 1-1 34-1 11-2 13-5 15-2h13v-1l11-2-2-5h1v-24l-5-4-1-6 2-2 11 1 4 1 6-3 7-17 10-29 4-10z" fill="#31A9CD"/>
<path transform="translate(1252,559)" d="m0 0 8 6 2 3h11l5-2 2-4 1 16 24 1 1 2-15 15-7 8-17 17-4-2-37-37-1-3h27z" fill="#FBFBFC"/>
<path transform="translate(793,1080)" d="m0 0h13l8 4 7 7 5 10 1 6-3 9-7 9-8 6-7 2-9-1-10-6-7-8-2-5v-14l4-8 7-7z" fill="#8DB8FD"/>
<path transform="translate(1128,1081)" d="m0 0 2 3 3 3 3 8v4h3l1 3 2-1 4 12 6 11 9 11 12 9 16 7 15 3h13l11-2h5l-2 2h-3v4l-2 1h-11l-12-1h-9l-3-1v-2h-8l-12-5-5-3-9-6-1-2-5 1-3 1v2l-2 1v1l-11 1-8-1-6 3-1 6 1 8-2-3-1-3v-53l3-16 3-5z" fill="#3DB7E2"/>
<path transform="translate(281,775)" d="m0 0 5 1 10 6 6 4v17l31 1v-19l12-7h3l-4 5-1 5v11l1 15 1 3-1 19-4 1-3-2-1 3-11 2-13 1-4 2 1-5-3-1-2-7-1-3 1-4-4-2-2-6v-8l-4-2-5-2 1-6 2-5v-5l-4-2-2-2h-10l-4 1v-3z" fill="#39D1CE"/>
<path transform="translate(418,707)" d="m0 0h2l2 6 1 10 1 2 1 10v43l-5 1-1 2h-2l-1 3h-4l-1 6-8 7-1 2h-3l-1 3-1-2-3-1-4-8v-5l3-7 3-8 2-3 2-6-1-1-2-10-3-9v-2l2-1 2-6 5-7 1-3 4-1 8-11z" fill="#3BC5D1"/>
<path transform="translate(767,662)" d="m0 0h201l2 3v3l-5 1h-302v-6z" fill="#3285EC"/>
<path transform="translate(915,635)" d="m0 0h53l2 6-1 1-17 1h-288l-1-1v-6z" fill="#2692E6"/>
<path transform="translate(897,582)" d="m0 0h71l2 1v5l-1 1-299 1-7-1v-6z" fill="#258FE7"/>
<path transform="translate(500,947)" d="m0 0 3 1-1 22-6 7-11 9-3 3-3 2 10 9 11 9 2 2v25l-5-3-9-8-3-2v-2l-4-2-8-7-4-3v-2l-5-2-13-12v-4l11-9 3-3h2l1-3 4-3h2v-2l10-8 11-10z" fill="#F9FAFC"/>
<path transform="translate(382,628)" d="m0 0h24l10 5 8 9 2 6 1 7v169l-4 9-1-4 3-8v-19l-1-67-1-10-1-5-1-10 1-6h2l-1-13-1-1-4-28h-2v2l-7 3-6-1-4-1-4-2-1-3-6 1-4-2-2-7z" fill="#3CAEE4"/>
<path transform="translate(583,947)" d="m0 0 8 6 13 12 11 9 11 10 7 5-1 5-10 8-14 12-11 10-8 7-4 4-3-1v-22l4-5 11-9 7-6-2-4-9-7-11-9v-24z" fill="#FAFBFC"/>
<path transform="translate(1199,1027)" d="m0 0h20l8 2v2l12 6 4 3v2l-5-1-9-2-12 1-10 4-7 4h-2l-1 3-9 6-9 7-8 7-7 13-1 2h-2v16l1 5-3 3-2-3-4-12-1-6v-10l3-14 6-12 8-10 10-8 10-5z" fill="#3CAFE3"/>
<path transform="translate(1280,526)" d="m0 0h4l-2 7h3l2-2 1-2 13-1 2-1 30 1 17-1-1 4v3l2 3-16 2h-6v2h-3v2l-10 2 1 3-6 4-4 10-3 3v2h-2l-2 5h-11l-3-3-4 2-1 6h26l1 5v2l-8 7-4 4-6 2 6-7 7-7h2v-3l-24-1-1-1v-50l-3-1z" fill="#4AD1DA"/>
<path transform="translate(344,577)" d="m0 0h37l-1 46-1 4-2 1h-20l-12-1z" fill="#3B3F8C"/>
<path transform="translate(1046,578)" d="m0 0 5 1v246l-4 8-2 1 1-4 2-3v-108l-1-49-1-6-5 1v7h-2l-3-10-2-14-1-9v-11l1-10v-9l3-22 6-8z" fill="#39D0CE"/>
<path transform="translate(1281,678)" d="m0 0h60l6 3-8 14-4 11-2 10-3 2h-23l-4 1-2-3-2-16-15-15-7-5z" fill="#B1CEFC"/>
<path transform="translate(1465,640)" d="m0 0 5 1 7 10 14 25 2 4-1 4-9 7-11 6-3 2v21l-1 13 4 4 13 7 8 7-1 5-9 17-13 20-3 2-17-10-5-3h-5l-15 9-13 6v-2l8-6h2l1-3 10-4h4v-2l7-1 9 3 7 3 8-2 2-4 3-9 2-12h2l-4-7-2-4-1-3-5-5-1-2v-9l2-6v-7l-1-2-1 7-2-3-1-4v-7l3-6 9-8 4-9 1-7h-2l-2-5-3-11-4-8-2-1h-9l-12 3 4-4 14-9z" fill="#FCFCFC"/>
<path transform="translate(1306,584)" d="m0 0h3l1 3-2 5v9l-5 13-8 10-1 4-13 14h-3v2l-10 5h-6l-3-2 1 5-1 3-1 11-2-1v-38l2-4 2-2-1-6 6 5 4-2 21-21 8-5z" fill="#39D1CE"/>
<path transform="translate(664,745)" d="m0 0h196l1 1v6l-1 1h-197v-7z" fill="#FCFCFC"/>
<path transform="translate(858,771)" d="m0 0 3 1v7l-1 1h-193l-4-1v-7z" fill="#FBFAFC"/>
<path transform="translate(1296,1107)" d="m0 0 3 1 2 10v42l-7 9-7 5-5 1h-24l-2-6v-2l6-3h3v-2l3-1 2-7 3-4 2-10 2-5 8-10 1-3h3l1-7 3-6z" fill="#3CDAC8"/>
<path transform="translate(666,818)" d="m0 0h41v1l-20 1 11 1v2l9 1 3 2v4l2 1v2l-5 1v-2h-3v2l-6 3-28 2-13 3 62 1v1h-73l-23-1-9-1 3-4 3-2 16-5 6-5v-3h9l2-4z" fill="#3CB7E2"/>
<path transform="translate(1373,481)" d="m0 0 3 1 6 11 2 13 1 3h2l2 3 2-2-1 9-11 12-4 1v2l-6 2h-19l-3-3 3-6-8 1-11 1-28-1-5 1-10 1-1 3-5 2-1-4 3-6 8-1v-2h12l3-1 36-3 11-2 10-2 2-2-36-2v-1l52-1-2-13-5-10z" fill="#3CC5D2"/>
<path transform="translate(601,898)" d="m0 0h30l9 1-4 2-8-1 1 3-5 1 3 5-1 6-3 4h-4l-2 4-5 3-7 8-4 4-1 2-10 3-3-1-1 2h-2v-2l-3-1 2-6-4-2 2-10 5-7 2-12 4-4z" fill="#3CB8E1"/>
<path transform="translate(663,719)" d="m0 0h197l1 1v6h-198z" fill="#FAFAFB"/>
<path transform="translate(517,1051)" d="m0 0h13v1h-9v2l10 2 22-2h28l7 1v2l-10 2-4 3-2 5h-2v2h4l-1 6-1 4 4 3 7 2 1 2h-16l-9-2-4-1-2-4-4-2 1-2-3-1-2-5-7-3-10 2-5-1v-2l-11-2-1-4h-29l-2-1-11-1-31-1 1-2h78z" fill="#39D1CE"/>
<path transform="translate(541,897)" d="m0 0h118l9 4 7 6 3 6 2 7 1 135h-2l-1-52-1-25-5-13v-7l1-7 1-8-3-16-4-1-8 4-4-1-3-3-4-2-4-1 1-3h3v-2h-3l2-4 2-3-6 1v-2h2v-3h17l-9-4-11-1-3-1v-1l-8-1h-35l-55-1z" fill="#4BC0E1"/>
<path transform="translate(1069,1294)" d="m0 0h10v2l-16 3h-5v2l-8 2-10 6h-4v2h-2l1 8 1 3 5 2 16 6 34 3 5 1 25 2 5 1h25l143 1-2 2-21 1h-125l-40-2-43-5-25-5-12-3-11-6-4-4 1-4 5-4 15-6z" fill="#FDFDFD"/>
<path transform="translate(491,529)" d="m0 0h27v45l-2 3-25 1z" fill="#319AC9"/>
<path transform="translate(1186,993)" d="m0 0h50l-3 3-2-1 2 5 1 7 11 8v2l4 2h-6l7 4-4 1-10-5-13-4h-29v-2l-5-1-2 1-6-1-2 2-4-2-3-3 2-4 5-1-5-6 7-4z" fill="#3CAFE3"/>
<path transform="translate(1218,619)" d="m0 0 3 4v52h-9l-9-1-3-1-5 1-6-2-3 2h-3l-2-1-7 1h-26l-5-1v-3l9-1h13v-2h17v-2l8-2 6-2v-2l4-2 5-13-2-1 5-5 4-5 2-10 4 1z" fill="#3BC4D2"/>
<path transform="translate(1226,1061)" d="m0 0 5 2 4 3v2l4 1-1 5-11 12-9 11-13 14-8-6-15-13-1-5 8-9 5 2 9 7 5-5 12-13z" fill="#F9FBFC"/>
<path transform="translate(237,551)" d="m0 0h162v1l-14 1-40 1 2 4h-7v2l-7 6-8 2-3 1v3l-11-1v-1l-5-1v-1l-14 1 2-4-1-3-9-2-2-5-2-2-43-1z" fill="#37C8CD"/>
<path transform="translate(806,889)" d="m0 0h65l-1 19-2-3-3-5-8-2-14 1-12 2-7 2h-10v7l-1 8-2 29 3 4 3 2h-11z" fill="#5547FF"/>
<path transform="translate(1010,506)" d="m0 0h9l8 2 6 7 4 4 4 7h4l1-2h3v6l-4 1-5-1-14-1-3-1v-14l-482-1v-1l418-1 1-2 11-1 2 1 16-1 5-1z" fill="#3CC2D0"/>
<path transform="translate(281,775)" d="m0 0 5 1 10 6 6 4v17l31 1v-19l12-7h3l-4 5-1 5v11l1 10-2 1-4-1-5 3-10 3h-14l-7-2-4-3v-3l-4-2-5-2 1-6 2-5v-5l-4-2-2-2h-10l-4 1v-3z" fill="#3DC5D2"/>
<path transform="translate(1048,289)" d="m0 0v3l-6 4-10 4-16 11-9 6-2 2-10 2-13-5-13-6-6-3-6-4-5-2-8 2-2 6-7 11-8 11-9 19-3 8-5 7v7l4 2 5 4 7 4 5 4 7 4v2l6 2 3 2v2l-6-2-11-6-21-13-8-4 1-5 8-13 14-25 14-24 6-11 2-2 6 1 18 10 17 10 8 4 4-1 15-11 16-9 11-5z" fill="#FDFDFD"/>
<path transform="translate(420,751)" d="m0 0 4 2 1 5v20l-5 1-1 2h-2l-1 3h-4l-1 6-8 7-1 2h-3l-1 3-1-2-3-1-4-8v-5l3-7 3-8 2-3 1-5 4 1 4-2v2l9-9 2-3z" fill="#39D0CF"/>
<path transform="translate(1160,511)" d="m0 0h8l1 4-6-1 2 1 20 3 16 2 11 1 17 1 3 1 1 4h8l4 4v2l3 1-1 8-4 1-16-10-10-3-12-1-42-1-1-5-5-2-2-2v-4h2l1-3z" fill="#3CB8E1"/>
<path transform="translate(527,493)" d="m0 0h28l9 1 1 1 23-1 1 1 4 1 3 2-6 1-60 2-8 1-2-1v2l-4 1-1 4-2 2-4 10-8 2v5l17 1v1h-27v5h-1v-6h2v-2h2l-1-7-2-9 2-5 4-2h3l1-2 3-1 4-1 9-2 2-2z" fill="#4CC5E1"/>
<path transform="translate(502,1012)" d="m0 0h1l1 21 6-2 3 2 1 13 3 5v3l-2 1h-77l-5 1h-26l-3-2 1-1 34-1 11-2 13-5 15-2h13v-1l11-2-2-5h1z" fill="#30AACE"/>
<path transform="translate(312,706)" d="m0 0h11l10 4 8 7 5 8 2 7v9l-5 13h-2l-2 4-4 2v2l-7 2-4-1 4-3 1-1h2v-2l3-3h2l2-11 1-12-1-5-3-1v-2l-2-1-2-4-6-2-1-1h-11l-12 6-3 4h-2l-1 7-3 6 1 11-3 1-3-7v-14l6-12 5-4 1-2 5-3z" fill="#3BB9D7"/>
<path transform="translate(1434,701)" d="m0 0 3 1 3 8 2 7-2 1-1-2v13l-6 15-8 11-3 5h-2v2l-8 6-9 3-13 3h-15l-18-4-9-6-7-9-5-15-1 18h-1l-2-12v-10l1-2-4-2 1-2h-2l2-4 2-3h2l3 12 5 10 9 10 6 5 14 6 8 2h13l12-4 11-6 8-7 6-9 5-13 1-4v-16z" fill="#FCFCFC"/>
<path transform="translate(1332,1292)" d="m0 0 1 2h16l35 7 16 6 8 5v5l-5 4-12 5-19 5-25 4-14 1-1-2 26-4 12-3 8-7 1-8 1-3-7-3-5-3-10-3-21-4-3 2-6 1-2 1 2-4z" fill="#FCFCFC"/>
<path transform="translate(671,964)" d="m0 0 3 3 4 11v18l-5-1-2 9-5-3-10 2h-7v-2h-3v-5h-2v-3h-3v-6l-2-4-2-2 5-1v2l4-3h2v2h4l3-3 1 2 2-2h3l4-5h2l2-5z" fill="#39D1CF"/>
<path transform="translate(195,673)" d="m0 0 12 1v16h-48l-5-2-4-4 1-6 4-4z" fill="#FCFCFC"/>
<path transform="translate(1301,734)" d="m0 0v3l-9 9-5 1-2 10 5 13 1 3h2l5 7 3 6 3 1 8-2 5-3 8-3 7 1 15 8 5 3 7 6 4 11 3 13v3l32 1h7l2-6 2-21h3l-1 4-1 24-3 3-19 1h-20l-8-1-1-1-1-26-1-4-21-12-6-4-7 1-16 10-7 1-4-5-10-18-8-17 1-5 21-14z" fill="#FDFDFD"/>
<path transform="translate(156,616)" d="m0 0h44l12 2 6 7-6 5h-57l-5-4v-6z" fill="#FCFCFC"/>
<path transform="translate(641,690)" d="m0 0h105l3 1v6l-1 1h-107l-1-1z" fill="#FDFDFD"/>
<path transform="translate(1222,582)" d="m0 0 5 1 12 11 20 20 1 4-5 3-4 1h-8l-7-2h-5l-5-4-3-3-1-8-1-19z" fill="#2FA9CD"/>
<path transform="translate(284,463)" d="m0 0h101l2 1v6l-1 1h-104l-3-1v-5z" fill="#2192E6"/>
<path transform="translate(206,827)" d="m0 0 2 4-3 8v7l-3 3-5 3 1 6 1 4h4l2 2 4 1v1l-55-1-4-4v-6l5-4 34-2 5-3 5-8 6-10z" fill="#EFEEF6"/>
<path transform="translate(158,791)" d="m0 0h42l5 2 2-1v14l-2-3-3 4h-46l-6-5 1-7 4-3z" fill="#FCFCFC"/>
<path transform="translate(156,381)" d="m0 0h41l11 1-1 14-6 1-46-1-5-4v-7l3-3z" fill="#FBFBFC"/>
<path transform="translate(157,439)" d="m0 0h30l18 1v14l-15 1h-34l-5-4-1-7 4-4z" fill="#FCFCFC"/>
<path transform="translate(330,734)" d="m0 0 5 2 3 3 1 6-3 9h-2l-1 3h-2l-2 5h-3l-1 1h6l-2 2-9 3-9-1-3-2h3l-1-3-6-4-3-3-1-5 2-8 4-2 4 3 15-1-3-3 4-3h4z" fill="#4DD2DB"/>
<path transform="translate(875,772)" d="m0 0h96l1 1v6l-1 1h-96z" fill="#F7F8FC"/>
<path transform="translate(875,745)" d="m0 0h96l1 1v6l-1 1h-96z" fill="#FCFCFC"/>
<path transform="translate(419,642)" d="m0 0 5 2 2 4 1 7v169l-4 9-1-4 3-8v-19l-1-67-1-10-1-5-1-10 1-6h2l-1-13-1-1-4-28h-2v2l-7 3-2-2 2-3h2l2-6 2-4 2-7z" fill="#3CB6E2"/>
<path transform="translate(915,635)" d="m0 0h53l2 6-1 1-17 1-233-1v-1l69-1v-1h87l15 1h61l12 1v-2l2-1-300-1v-1z" fill="#537DF6"/>
<path transform="translate(303,916)" d="m0 0h5l10 23 5 12 2 3 4 1 14 1v45h-1l-1-26-2-4-1 6 3 1h-2v3h2v9h-2l-3-11-2-15-9-4v-1l10 1 2 1 1-2-14-2-6-8-5-10-3-10-1-3-8-4-10 4-7 2-6 3-12 4-2 2-9 2-6 3-1 10 3 5 2 5 1 8 2 7v2h-2l-13-36 1-3 11-5 29-11z" fill="#FCFCFC"/>
<path transform="translate(218,1099)" d="m0 0 2 3 3 9 3 6 4 10 3 9-1 9-4 6h-2l-2 6-5 8h-2v8l3 5v2h2v2l4 2 4 3v2l3 1v2l5 2 9 7 5 4 9 1 5-1 1-2 5-3 1-2h2v-2l9-9 2 1-10 13-10 11-4 5-4-1-14-11-13-11-14-11-10-8-2-4 7-10 11-12 7-10-1-7-8-17-4-14z" fill="#FDFDFD"/>
<path transform="translate(640,554)" d="m0 0h109v6l-1 1h-107l-1-1z" fill="#FDFDFD"/>
<path transform="translate(159,733)" d="m0 0h20l18 1 7 2 1 1v7h2v2l-4 2h-48l-5-4v-6l3-3z" fill="#FCFCFC"/>
<path transform="translate(157,499)" d="m0 0h41l7 2 1 6-1 6h-51l-4-4 1-7z" fill="#FCFCFC"/>
<path transform="translate(1128,1081)" d="m0 0 2 3 3 3 3 8v4h3l1 3 2-1 4 12 6 11 5 6-1 2-3-2h-4v-2h-2l-7-8-5-6h-3v-3l-6 2h-4l-2 11-1 22h-1v-43l3-16 3-5z" fill="#3CAFE3"/>
<path transform="translate(1050,579)" d="m0 0h1v246l-4 8-2 1 1-4 2-3v-108l-1-88-2-34 1-5h1l2-12z" fill="#41A6E6"/>
<path transform="translate(232,387)" d="m0 0h2v162l2 2-4-1-1-29-1-6-2-2-1-15 2-2 1-7v-24l-2-9-2-3-2 1-1-3-3 7h-3l1-16 5-2 4-2-2 6 3-6h2v-9l1-7z" fill="#42B8D9"/>
<path transform="translate(1114,578)" d="m0 0 3 1h33l1 2 10 3-4 3-11 3h-2l-1 4-1-3h-2l-1 5-13-1-5-3-3 1-1 6-1 39v17l1 6-3-4-1-4v-74z" fill="#3CACE4"/>
<path transform="translate(875,719)" d="m0 0h96l1 1v6h-97l-1-1v-5z" fill="#FAFAFB"/>
<path transform="translate(155,557)" d="m0 0h40l7 2v2h-6l-2 4 1 9-19-1h-11l-12-2-3-4v-5z" fill="#FBFBFC"/>
<path transform="translate(938,608)" d="m0 0h30l2 2v5l-1 1h-306v-5l1 4 304-1v-4h-305v-1z" fill="#6071FD"/>
<path transform="translate(1373,481)" d="m0 0 3 1 6 11 2 13 1 3h2l2 3 2-2-1 9-11 12-4 1v2l-6 2h-19l-3-3 3-6 18-5 5-5 4-2 1-4-48-1v-1l52-1-2-13-5-10z" fill="#3FD0D2"/>
<path transform="translate(325,439)" d="m0 0h29l17 1 2 3-1 4-12 1h-59l-7-2v-5l1-1z" fill="#6173FD"/>
<path transform="translate(1299,1021)" d="m0 0h2v97h-1l-2-10-1-14-3-25-5-12-2-8 2-6h2l1-12 2-7 3-2 2 2z" fill="#4BD1DB"/>
<path transform="translate(1164,372)" d="m0 0h68v1l-18 1-4 2h-9l-2 1-11 1-4 2-4 1-6 2-1 2h-4l-14 4-4-1 2-1-8 1 2-2 3-1h-4l-1-5-4-3h2l-1-3z" fill="#4DC6E1"/>
<path transform="translate(295,508)" d="m0 0h75l3 2-1 5-4 1h-72l-2-2v-5z" fill="#6173FD"/>
<path transform="translate(293,484)" d="m0 0h69l2 2v5l-1 1h-77l-1-1v-5l1-1z" fill="#6073FC"/>
<path transform="translate(1208,993)" d="m0 0h28l-3 3-2-1 2 5 1 7 11 8v2l4 2h-6l7 4-4 1-10-5-8-3 1-2-9-2-5-4-16-8-1-3 8-3z" fill="#3DB8E1"/>
<path transform="translate(1052,231)" d="m0 0h79l11 1 1 1v51h-2l-1 2-1-23-1-14v-7l-2-3-22-4h-40l-15 1-6 8-1 9h-1l-1-20z" fill="#FDFDFD"/>
<path transform="translate(286,416)" d="m0 0h77l2 2-1 5-5 1h-65l-8-1-1-1v-5z" fill="#2192E6"/>
<path transform="translate(663,583)" d="m0 0h87v1l-43 1 1 2 261 1v1l-299 1-7-1z" fill="#577CF8"/>
<path transform="translate(517,1051)" d="m0 0h13v1h-9v2l10 2 22-2 9 1v1l-11 1-5 2-5 5-3 2-10 2-5-1v-2l-11-2-1-4h-29l-2-1-11-1-31-1 1-2h78z" fill="#3BC4D2"/>
<path transform="translate(677,820)" d="m0 0h10l11 1v2l9 1 3 2v4l2 1v2l-5 1v-2h-3v2l-6 3-28 2-10 1v-2l-2-2 5-3 12-1 4-6-3-2z" fill="#38B9D7"/>
<path transform="translate(496 1e3)" d="m0 0 9 4v2l5 2 1 4h3l4-8 8-4v7l-9 33-2 4-2-2-1-13-4-1-4 2-1-1-1-21-6-5z" fill="#329CCA"/>
<path transform="translate(573,973)" d="m0 0 3 1v2l4 1v2l4 2 3 1 4 5 2 2-2 6-5 5-7 4-9-1-3-5 1-2h-2l-1-4 2-4 2-7 1-4z" fill="#38B9D7"/>
<path transform="translate(1199,1027)" d="m0 0h20l4 3-17 2-13 5-7 2-1 3-8 5-4 5-5 4-5 6-1 3h-2l-1 6-4 1v-7l6-12 8-10 10-8 10-5z" fill="#3CA5E6"/>
<path transform="translate(949,403)" d="m0 0h2l1 6v13l1 7v19 3l1-5 2 3-2 12-2 5h-2l-1 3-4 4-4 6-5 3 15 1v1h-34l4-5 13-8 15-9-1-19v-26z" fill="#FBFBFC"/>
<path transform="translate(228,627)" d="m0 0h103v1l-40 1-15 3-22 1-9 1-5 5-6 4-2-1 7-6h-2l-3 1-3-3-1 4-4 2-4-1-3-3 2-4 5-2v-2z" fill="#4DC6E1"/>
<path transform="translate(1281,1070)" d="m0 0 2 4 2 13-1 13-2 9-8 16-2 3h-2v2l-4 4h-3l-1 3h-2l-1 4-5 5h-2l-1 2h-3l-2 4-7 4-8 3-4-1 1-4 4-2 2-2 16-8 8-6 1-2h2l2-4 10-14 6-21 1-24z" fill="#3BC5CD"/>
<path transform="translate(344,588)" d="m0 0h1v39h12l22 1-5 7-2 5-5 3-17-1-5-6-2-10v-37z" fill="#3C96C9"/>
<path transform="translate(183,1014)" d="m0 0 40 5v3h-33l-6 3-2 6-2 18-2 12v20l3 1v2l7 1 13 3v2l-10-1-17-3-3-2 1-9 8-52z" fill="#FDFDFD"/>
<path transform="translate(343,627)" d="m0 0h1v59l-1 6-6-2-5-3v-17l-30-1 1-2 13-3h16l6-3 5 1-1-34z" fill="#55D1DF"/>
<path transform="translate(381,718)" d="m0 0h3l1 7h-2l1 7-2 7 1 8 2 9-7-3-11-6v-21l10-6z" fill="#31AACE"/>
<path transform="translate(709,1280)" d="m0 0 195 1-4 2-74 1h-41l-82-1-6-1v-1z" fill="#FDFDFD"/>
<path transform="translate(255,1077)" d="m0 0 4 1 4 16 7 16 8 11 7 7 13 8 14 5 10 2 16 1v2l-10 1h-9l-16-3-11-6-5-2v-2l-5-2-5-5-8-10-4-6-3-10-2 3-2-6-2-9z" fill="#FDFDFD"/>
<path transform="translate(195,673)" d="m0 0 12 1v16h-20l-2-2-10-2-4-4 2-2 13-3h4l1-3z" fill="#FBFBFC"/>
<path transform="translate(594,582)" d="m0 0h52l1 1v6l-1 1h-51l-1-1z" fill="#FAFBFC"/>
<path transform="translate(595,635)" d="m0 0h49l3 2-1 6h-52v-7z" fill="#EBEFFC"/>
<path transform="translate(596,772)" d="m0 0h50v7l-3 1h-47l-3-1v-6z" fill="#3189EC"/>
<path transform="translate(284,463)" d="m0 0h101l2 1v6l-1 1h-104l-3-1v-5zm-1 2v4l5 1h33l62-1 2-1-1-3z" fill="#6173FD"/>
<path transform="translate(345,1220)" d="m0 0 1 2-12 6-5 4-2-1-2 4 1 8 8 5 13 5 4 1v2l-18-4-13-4-9-6-2-2 1-6 5-4 15-6z" fill="#FCFCFC"/>
<path transform="translate(594,662)" d="m0 0h52l1 1v6l-11 1h-38l-4-1z" fill="#F7F9FC"/>
<path transform="translate(1153,1129)" d="m0 0 20 15 16 7 15 3h13l11-2h5l-2 2h-3v4l-2 1h-11l-12-1h-9l-3-1v-2h-8l-12-5-5-3-9-6-5-6-2-5z" fill="#3BB9D8"/>
<path transform="translate(380,847)" d="m0 0h7v6l-2 1v2h-2v145l1 1 18 1v2h-21l-1-1z" fill="#4B2FFA"/>
<path transform="translate(312,706)" d="m0 0h7v1h-6l2 3h8l3 2 1 4-3-1h-11l-12 6-3 4h-2l-1 7-3 6 1 11-3 1-3-7v-14l6-12 5-4 1-2 5-3z" fill="#41B9E2"/>
<path transform="translate(572,553)" d="m0 0h52v8h-52l-1-7z" fill="#FDFDFD"/>
<path transform="translate(1281,678)" d="m0 0h60l6 3-4 6-4 2-10-2-10-4h-20l-8 2-10-2-4-4z" fill="#8DB8FD"/>
<path transform="translate(1410,797)" d="m0 0 2 1-1 4-1 24-3 3-19 1h-20l-8-1-1-1-1-29h2l4 13 2 12 32 1h7l2-6 2-21z" fill="#FCFCFC"/>
<path transform="translate(1293,595)" d="m0 0h2l-2 9-6 9-8 9-6 4-12 3-3 1-1 8h-1v-11l2-4 2-2-1-6 6 5 4-2 21-21z" fill="#3DC5D3"/>
<path transform="translate(607,690)" d="m0 0h17v8h-52v-7z" fill="#FDFDFD"/>
<path transform="translate(1120,663)" d="m0 0 13 3 12 3-2 1v3h31l10-1h3l4-1 6 2 4-1 2 1 17 2v2h-43l-41-1-10-4v-3l-4-2z" fill="#3CB7E2"/>
<path transform="translate(915,635)" d="m0 0h53l2 6-1 1h-5l4-1-1-3-302-1v-1z" fill="#5F6CFD"/>
<path transform="translate(594,609)" d="m0 0h52v7h-52z" fill="#FAFAFB"/>
<path transform="translate(1e3 420)" d="m0 0 2 2v13l3 19 5 14 8 14v2h-18v-1h6v-7l-5-11-2-6-1-14v-1l-1-11 2-11z" fill="#FCFBFC"/>
<path transform="translate(184,792)" d="m0 0h2l1 4 3-2 13-2h3 1v14l-2-3-3 4h-6v-2l-6-2-3-3-3 1 1 5-16-5v-4l5-4h8z" fill="#E9EBF6"/>
<path transform="translate(296,509)" d="m0 0 73 1v3l-2 1h-71l-1-4z" fill="#2192E6"/>
<path transform="translate(1240,1071)" d="m0 0 1 3-11 15-4 4-3 8-5 5-9 5-7 3-6-2-3-3v-3h-2l-2-7 5 2 10 9 7-6 12-14 13-15z" fill="#3BBAD8"/>
<path transform="translate(1165,667)" d="m0 0h19l7 1h6l4 2 12 3 3 2-13-1-3-1-5 1-6-2-3 2h-3l-2-1-7 1h-26l-5-1v-3l9-1h13z" fill="#4BC5E0"/>
<path transform="translate(750,583)" d="m0 0 4 1 1 2 110 1v1h-157l-4-4z" fill="#3E9AE9"/>
<path transform="translate(1269,674)" d="m0 0 70 1 20 1v1l-10 2-3 2-7-2h-64l-6-1h-12v-3z" fill="#62DAE0"/>
<path transform="translate(300,441)" d="m0 0h40l27 1 1 2-3 2h-66l-3-1 1-3z" fill="#2192E6"/>
<path transform="translate(524,972)" d="m0 0h1l1 9-8 18-6 3-8-2v-2l2-1 3-8 4-4 5-10 5-1z" fill="#3CAFE4"/>
<path transform="translate(630,994)" d="m0 0h2l-1 4-5 4h-2l-2 6-7 9-8 7h-2v2l-15 8-5 1 6-7 12-11 11-9 11-10z" fill="#33ACCF"/>
<path transform="translate(503,965)" d="m0 0h2v7l-5 6-1 4h-2l-2 4-2 6v6l3 1v7l-8-6-10-9 1-2 5-3 10-9 6-5z" fill="#3596EA"/>
<path transform="translate(899,889)" d="m0 0h64v11l-3-3-3-5h-29l-17 3-7 3-2 3-1 20h-1l-1-19z" fill="#5547FF"/>
<path transform="translate(1225,1030)" d="m0 0 7 1 10 5 12 11 8 11 4 11v24h-1l-2-17-8-15v-2l-2-1-6-11-5-7-10-6-7-3z" fill="#3BBAD8"/>
<path transform="translate(1421,649)" d="m0 0h5l1 5-2 4v18l-4 4-5-3-5-6 5-11 3-10z" fill="#B1CEFC"/>
<path transform="translate(344,875)" d="m0 0h1l1 177h31l26 1v1h-58l-1-1z" fill="#4D4EA2"/>
<path transform="translate(1301,1022)" d="m0 0 2 3v128l-2 4-1-37z" fill="#44ACE5"/>
<path transform="translate(517,574)" d="m0 0h1v214h-1l-1-209h-24l1-2 23-1z" fill="#6173FD"/>
<path transform="translate(428,662)" d="m0 0h1l3 15 2 5-1 9-1 5v17l-2 10-1 48h-1z" fill="#4B2FFA"/>
<path transform="translate(1253,1106)" d="m0 0 2 2 1 5-2 9-10 9-4-1-2-2-4 1-1-3-4 2 2-4 3-4h5l5-3h3v-3l4-4z" fill="#39D0CF"/>
<path transform="translate(197,617)" d="m0 0h12l5 3 4 5-6 5h-9l3-1v-2l-4 1h-7l-4-2-3-1 1-6 4-1-2 1h3z" fill="#EDECF6"/>
<path transform="translate(1139,371)" d="m0 0h136v1l-111 1-23 2-10 3-9 5-5 4 2-5 7-6 8-4z" fill="#B1CEFD"/>
<path transform="translate(212,801)" d="m0 0 2 1v6h-2l3 7 1 2 4 1v2l4 1 2 7-3 6h-2l-2 4-2-1v-2l-3-1-1-7-1-6-3-3v-9l1-3h2l-1-4z" fill="#5BDCDB"/>
<path transform="translate(401,389)" d="m0 0h1l1 24v25l1 6v25l-1 31-1 51-3-1 1-1z" fill="#34B9CE"/>
<path transform="translate(170,850)" d="m0 0h13v3l-7 2h-5l-4-1-7 1 1 6 12 2-2 2h-17l-4-4v-6l5-4z" fill="#FCFCFC"/>
<path transform="translate(281,775)" d="m0 0 5 1 10 6 6 4-2 14-5-5v-2l-3-1v-5l-4-2-2-2h-10l-4 1v-3z" fill="#3ABAD8"/>
<path transform="translate(1128 1e3)" d="m0 0 4 4v2l3 1-1 5-3 1-4 5-4 1-3 4-1 21h-1v-31l5-10z" fill="#3E9AE9"/>
<path transform="translate(1226,527)" d="m0 0h15l4 4v2l3 1-1 8-4 1-16-10-6-3 2-2z" fill="#4CC6E1"/>
<path transform="translate(1199,1027)" d="m0 0h20l4 3h-21l-8 2-9 4-4 1v2l-10 8h-2v3h-2l-2 4-4 6-2 4h-2l1-6 9-13 9-8 10-6z" fill="#2C99E7"/>
<path transform="translate(424,645)" d="m0 0 2 3 1 7v169l-4 9-1-4 3-8v-151z" fill="#3DA0E7"/>
<path transform="translate(349,775)" d="m0 0 6 1 8 5 5 4v2l-6 2-5-1h-12l-2-6z" fill="#30AACD"/>
<path transform="translate(286,416)" d="m0 0h77l2 2-1 5-5 1h-65l-8-1-1-1v-5zm1 1-1 3 1 2h74l2-1-1-4z" fill="#6173FD"/>
<path transform="translate(1263,1132)" d="m0 0 1 2-2 3h-2l-1 4-5 5h-2l-1 2h-3l-2 4-7 4-8 3-4-1 1-4 4-2 2-2 16-8 8-6 1-2z" fill="#34BECB"/>
<path transform="translate(235,357)" d="m0 0h84v1l-6 1-81 1-10 4-8 5 2-4 8-5 4-2z" fill="#B2CFFD"/>
<path transform="translate(1248,1099)" d="m0 0h4l2 6-4 8-3 1v3h-3l-1 2-4 2-4-1 1-4 3-3 2-7 5-5z" fill="#4BD2DB"/>
<path transform="translate(385,383)" d="m0 0h17l3 5 4 11 7 9 1 9v8l-2-1-3-9-3-1-2-10-3-7-2 1-1-14h-16z" fill="#4ACCDB"/>
<path transform="translate(263,508)" d="m0 0h22l1 1v6l-1 1h-22l-1-1v-6z" fill="#EEF2FC"/>
<path transform="translate(1049,659)" d="m0 0h1v169l-4 6-1-3 3-4z" fill="#3DB8E1"/>
<path transform="translate(206,827)" d="m0 0 2 4-3 8v7l-3 3-9 4-3 3-5-2v-3l8-4 4-5 6-11z" fill="#FBFBFC"/>
<path transform="translate(1280,526)" d="m0 0h4l-2 5-1 46h26l1 5v2l-8 7-4 4-6 2 6-7 7-7h2v-3l-24-1-1-1v-50l-3-1z" fill="#6CD2E5"/>
<path transform="translate(195,735)" d="m0 0h7l3 2v7h2v2l-4 2h-7l-6-3-2-4z" fill="#E7E9F7"/>
<path transform="translate(248,464)" d="m0 0h24v7h-24l-1-1v-5z" fill="#F9F9FB"/>
<path transform="translate(586,948)" d="m0 0 4 2 5 2 6 4 4 5 6 5v2l3 1v2h2l7 8h3v3h3l1 4-5-2-11-10-11-9-12-11-5-4z" fill="#34ADD0"/>
<path transform="translate(340,731)" d="m0 0 2 2 2 18-1 3h-2l-2 4-4 2v2l-7 2-4-1 4-3 1-1h2v-2l3-3h2l2-11z" fill="#40C5D4"/>
<path transform="translate(1213,324)" d="m0 0 12 1 4 1-1 3-11 4h-19l4-4 4-1z" fill="#FDFDFD"/>
<path transform="translate(343,663)" d="m0 0h1v23l-1 6-6-2-4-2 1-14 2-1v2h5l1-2z" fill="#4BC6E0"/>
<path transform="translate(480,961)" d="m0 0m-1 1m-2 1h2l-1 4-4 2v2l-6 4-5 5-9 8h-3l-1-5h2v-3l5-2 4-2 1-3h2v-2l4-3 4-1 3-1v-2z" fill="#2695E6"/>
<path transform="translate(263,440)" d="m0 0h22l1 1v5l-2 1h-21l-1-1v-5z" fill="#F7F7FB"/>
<path transform="translate(331,845)" d="m0 0h12l-2 4-1-1h-96l-7-1v-1z" fill="#64D2E6"/>
<path transform="translate(958,507)" d="m0 0 1 4h6v1h-78v-1l27-1 35-2h7z" fill="#4BD0DB"/>
<path transform="translate(294,486)" d="m0 0h19l27 1v2l-12 1-35 1-5-2 2-2z" fill="#2391E6"/>
<path transform="translate(255,981)" d="m0 0h2l-1 5-1 3h-2l-2 5-3 3-4 6-9 9h-2l-2 4-2 3h-2l2-5 8-11 9-10 8-10z" fill="#FDFDFD"/>
<path transform="translate(964,510)" d="m0 0 59 1 2 7 2 6 6 3 16 1v2l-4 1-5-1-14-1-3-1v-14l-5-1-53-1z" fill="#39D0CE"/>
<path transform="translate(1240,1071)" d="m0 0 1 3-11 15-4 4-1 3-5 3-5 5-5 4 1-4 12-14 13-15z" fill="#33ADD1"/>
<path transform="translate(424,702)" d="m0 0h1l1 27v73h-1l-1-67-1-10-1-5-1-10 1-6h2z" fill="#4BC5E1"/>
<path transform="translate(750,583)" d="m0 0 4 1 1 3h-49l-2-3z" fill="#3CA4E7"/>
<path transform="translate(965,638)" d="m0 0h3v3l-16 2h-24l-55-1 1-2h77l12 1v-2z" fill="#4688EF"/>
<path transform="translate(260,723)" d="m0 0 5 1 3 2-1 22h-5l-1-2v-15l-2-4z" fill="#4ABDE3"/>
<path transform="translate(1337,675)" d="m0 0 22 1v1l-10 2-3 2-7-2h-56l-5-2v-1h55z" fill="#4CC6E1"/>
<path transform="translate(1222,1061)" d="m0 0h3l-1 4-11 12-9 11-5-3v-3l3-3 6-3 10-9 2-2-1-2z" fill="#39B6D5"/>
<path transform="translate(197,500)" d="m0 0 8 1 1 6-1 6h-6v-2l-7-2-2-5z" fill="#EDECF6"/>
<path transform="translate(206,675)" d="m0 0h1v14h-8l-7-4 1-5 9-3 4 1z" fill="#E7E9F6"/>
<path transform="translate(1126,671)" d="m0 0h5l6 3 83 1v2h-43l-41-1-10-4z" fill="#3E98E9"/>
<path transform="translate(187,499)" d="m0 0h11l-3 3-4 3 1 4 5 1 2 1v2h-15l2-3-3-1-2-4 3-3z" fill="#FCFCFC"/>
<path transform="translate(675,943)" d="m0 0 3 2v33l-2-3-4-10v-7l2-14z" fill="#4BD2DB"/>
<path transform="translate(420,833)" d="m0 0 2 1-6 7-8 4-6 1-59 1v-2l39-1 5-1 22-1 3-2h3l2-4 3-1z" fill="#3BACD7"/>
<path transform="translate(187,734)" d="m0 0h10l-4 4-4 3 2 4 5 2v1h-17l1-7 4-5h3z" fill="#FCFCFC"/>
<path transform="translate(325,439)" d="m0 0h29l17 1 2 3-1 4h-7l2-4-36-1-6-2z" fill="#6071FD"/>
<path transform="translate(344,1053)" d="m0 0 59 1v7l-2-3-11-1-44-1-2-1z" fill="#7999FD"/>
<path transform="translate(184,792)" d="m0 0h2v5l-2 1v5 3l-9-3-7-3 2-4 4-3h8z" fill="#EDECF6"/>
<path transform="translate(1113,576)" d="m0 0 1 3-1 1h-61v-3l61 1z" fill="#5446FE"/>
<path transform="translate(663,583)" d="m0 0h21l9 3v1l-9 1-21 1z" fill="#2C8CEA"/>
<path transform="translate(498,979)" d="m0 0 1 3h-2l-2 4-2 6v6l3 1v7l-8-6-2-4 3-9 5-5z" fill="#3D9CE5"/>
<path transform="translate(1285,568)" d="m0 0 2 1v2l14 1 2 3-3 2h-19v-6l4-1z" fill="#3ACFCF"/>
<path transform="translate(263,416)" d="m0 0h13l2 1v6l-2 1h-12l-2-1v-6z" fill="#E7ECFC"/>
<path transform="translate(629,746)" d="m0 0h17l1 5-1 2h-13l-4-1-1-5z" fill="#3289EC"/>
<path transform="translate(565,945)" d="m0 0 2 4-4 18-6 21-1 3-3 1 4-17z" fill="#36A3CE"/>
<path transform="translate(1427,647)" d="m0 0 5 1 9 4-1 7-2 2v17l-3-1 1-12-2-9-7-8z" fill="#FCFCFC"/>
<path transform="translate(679,1055)" d="m0 0h2v7l-3 13-7 8-10 4h-5l1-3 9-3 6-4 4-6 2-14z" fill="#5ED2E3"/>
<path transform="translate(293,724)" d="m0 0h3l-1 8-3 6 1 11-3 1-2-5v-15l3-4h2z" fill="#39B9D7"/>
<path transform="translate(1187,671)" d="m0 0 6 1 4 1 4-1 2 1 9 1v1h-75v-1l37-1 10-1h3z" fill="#3AB3DF"/>
<path transform="translate(1218,1063)" d="m0 0 3 2-5 5-9 8-4-1 1-3 1-8h4z" fill="#4CC6E1"/>
<path transform="translate(262,485)" d="m0 0h15l1 1v5l-1 1h-13l-2-1z" fill="#E5E9F8"/>
<path transform="translate(202,441)" d="m0 0h3v12l-8-1-1-3-4-2 3-4z" fill="#EDECF6"/>
<path transform="translate(928,1195)" d="m0 0h38v1l-26 2h8l2 2-10 1h-6l-6-5z" fill="#FCFCFC"/>
<path transform="translate(1441,779)" d="m0 0 4 1v1l-6 2-18 10-9 4v-2l8-6h2l1-3 10-4h4v-2z" fill="#FDFDFD"/>
<path transform="translate(1038,1198)" d="m0 0h17l24 2 2 1-1 4-7-3-3 1-2-2-6 1h-5v-1h-20z" fill="#FCFCFC"/>
<path transform="translate(190,676)" d="m0 0 3 1-7 3v2h-2l1 5-10-1-4-4 2-2z" fill="#EDECF6"/>
<path transform="translate(1336,765)" d="m0 0 7 6 3 3 13 5 9 2v1h-10l-10-3-4-1h-2l-6-9z" fill="#FDFDFD"/>
<path transform="translate(341,720)" d="m0 0h2l4 8 1 4v9l-3 7h-1l-2-20z" fill="#35AFD1"/>
<path transform="translate(208,818)" d="m0 0 4 2 2 5v7l4 5 2 1v2l5 2 1 2-5-2-8-6-5-8z" fill="#6FD5E9"/>
<path transform="translate(382,759)" d="m0 0 2 1-1 6-5 8-5 9-4 2 1-5 9-17z" fill="#35AFD1"/>
<path transform="translate(231,489)" d="m0 0h1v32h-1l-1-6-2-2-1-15 2-2z" fill="#4CC6E1"/>
<path transform="translate(444,442)" d="m0 0h8l7 2-2 5-7 2h-7l3-4v-3z" fill="#EDECF6"/>
<path transform="translate(314,664)" d="m0 0h3v2h15v3h-30l1-2z" fill="#4EC7E1"/>
<path transform="translate(487,1270)" d="m0 0 46 4 1 2h-11l-37-3z" fill="#FDFDFD"/>
<path transform="translate(1228,1152)" d="m0 0h5l-2 2h-3v4l-2 1h-11l-7-2 3-2z" fill="#38B7D5"/>
<path transform="translate(255,1077)" d="m0 0 4 1 3 12-1 14-2-1-3-14z" fill="#FCFCFC"/>
<path transform="translate(1160,1110)" d="m0 0 5 2 3 4v3l4 2 5 8-5-1-9-10-3-5z" fill="#3CBAD8"/>
<path transform="translate(1225,1030)" d="m0 0 7 1 10 5 12 11 3 4-1 3-8-9-3-1-5-5-8-5-7-3z" fill="#36B0D2"/>
<path transform="translate(549,1009)" d="m0 0h1v9l-1 3h-2v6l-4 12-3 1 4-17 4-13z" fill="#35A1CD"/>
<path transform="translate(208,381)" d="m0 0 8 2 5-1 1 4-6 3-7 1-1 6h-1v-8z" fill="#4CC6E1"/>
<path transform="translate(218,1099)" d="m0 0 2 3 3 9 3 6 4 10 2 6-1 4-10-22-4-14z" fill="#FCFCFC"/>
<path transform="translate(1049,754)" d="m0 0h1v74l-4 6-1-3 3-4z" fill="#49BFE1"/>
<path transform="translate(344,689)" d="m0 0h8l6 3-2 4-6 2-6-4z" fill="#339DCB"/>
<path transform="translate(180,736)" d="m0 0 4 1-3 4 1 5-11 1 1-4h-2l1-3z" fill="#EDECF6"/>
<path transform="translate(1455,657)" d="m0 0 5 3 5 15 3 5-5-1-2-2-6-17z" fill="#FDFDFD"/>
<path transform="translate(176,560)" d="m0 0 4 1h-2l1 6 3 3-9-1-6-4 4-4z" fill="#EDECF6"/>
<path transform="translate(1280,526)" d="m0 0h4l-2 5-1 46h7l1 2h-8l-1-1v-50l-3-1z" fill="#76D4EC"/>
<path transform="translate(195,386)" d="m0 0h9l1 1v5l-5 1-11-3v-3z" fill="#EDECF6"/>
<path transform="translate(578,1276)" d="m0 0h10l7 1 21 1 2 2h-14l-27-1-2-2z" fill="#FDFDFD"/>
<path transform="translate(346,777)" d="m0 0 2 1-4 5-2 3-5 2-2 5-1 11h-1v-19l12-7z" fill="#43BEDB"/>
<path transform="translate(281,775)" d="m0 0 5 1 1 2h-2l1 4-10 1-4 1v-3z" fill="#3FBAE1"/>
<path transform="translate(964,510)" d="m0 0 59 1 1 4-6-2-53-1z" fill="#40CFD4"/>
<path transform="translate(1046,578)" d="m0 0h4l-2 15h-3v-7l-4 2v-7z" fill="#3CC4D2"/>
<path transform="translate(195,559)" d="m0 0 2 1-3 5v7l-4-1-4-4v-6z" fill="#EDECF6"/>
<path transform="translate(177,441)" d="m0 0 10 1-4 2 2 5 3 3-10-2-3-2 1-4 2-1z" fill="#EDECF6"/>
<path transform="translate(342,847)" d="m0 0h2v48h-1l-1-31-1-14z" fill="#81A6FD"/>
<path transform="translate(1337,675)" d="m0 0 22 1v1l-10 2-3 2-7-2h-8l-1-2z" fill="#58CBE3"/>
<path transform="translate(535,485)" d="m0 0h9v1l-5 1-28 1-8 4-4 3-2-1 7-6 4-2z" fill="#B3CFFD"/>
<path transform="translate(874,639)" d="m0 0m-13 0h12v3h-38v-1h26z" fill="#3E8FEB"/>
<path transform="translate(1249,561)" d="m0 0 2 1v16l-4-1-1-3 1-12z" fill="#309AC9"/>
<path transform="translate(1122,343)" d="m0 0 5 1 12 5 10 6 1 4-14-8-14-6z" fill="#FDFDFD"/>
<path transform="translate(1300,707)" d="m0 0h1l1 9 1 5 2 1 1 4-1 2h-3l1 4h-2l-1-7z" fill="#FBFBFC"/>
<path transform="translate(1046,592)" d="m0 0 2 1v38h-1l-2-34z" fill="#4BD2DB"/>
<path transform="translate(465,1204)" d="m0 0h6l1 2-10 1-12 1h-10l-1-2z" fill="#FDFDFD"/>
<path transform="translate(438,1054)" d="m0 0h36l2 2-1 1-37-1z" fill="#3ABFD4"/>
<path transform="translate(660,1194)" d="m0 0h12l-2 6-4-1-4-2-13-1v-1z" fill="#FBFBFC"/>
<path transform="translate(1222,1096)" d="m0 0 2 1-1 4-5 5-9 5h-3l3-5h3l4-4h2l2-4z" fill="#38B8D7"/>
<path transform="translate(343,663)" d="m0 0h1v23l-1 6-6-2-4-2v-3l5 2 4 1z" fill="#3DC0D7"/>
<path transform="translate(938,608)" d="m0 0h30l2 2v5l-1 1h-5l4-2v-4l-30-1z" fill="#5B60FD"/>
<path transform="translate(1240,598)" d="m0 0 4 1 10 10-1 2-6-2-1-4-3-1-3-4z" fill="#36A4CE"/>
<path transform="translate(1252,1118)" d="m0 0h3l-2 5-9 8h-3v-2l7-7 2 1v-4z" fill="#3EC7CE"/>
<path transform="translate(1184,891)" d="m0 0h23l4 2-24 1-3-1z" fill="#564BFE"/>
<path transform="translate(1240,1071)" d="m0 0 1 3-7 10h-3l-5 4 2-4 9-10z" fill="#3BB6D8"/>
<path transform="translate(1199,1027)" d="m0 0h20l4 3h-25z" fill="#2E9FE5"/>
<path transform="translate(408,1179)" d="m0 0h2l7 15 1 4-4-2-3-7 1-2h-2l-2-5z" fill="#FBFAFC"/>
<path transform="translate(406,1062)" d="m0 0 3 4 4 7-1 4-4-2-2-4-1-8z" fill="#69D3E8"/>
<path transform="translate(490,512)" d="m0 0 3 1 1 8v5h-2v2h-2z" fill="#72D7EA"/>
<path transform="translate(428,439)" d="m0 0h5l-2 4h2l1 6-2 2h-3z" fill="#EEEDF6"/>
<path transform="translate(207,667)" d="m0 0 6 1-2 5h-2l-1 17h-1z" fill="#5CC8E5"/>
<path transform="translate(1288,577)" d="m0 0h19l1 5-3 1v-3l-16-1z" fill="#6CD6E5"/>
<path transform="translate(179,502)" d="m0 0h5l-2 1 1 7-6-1v-2h-3l1-4z" fill="#EDECF6"/>
<path transform="translate(235,357)" d="m0 0h5l-2 2-12 3-9 5-3 2 2-4 8-5 4-2z" fill="#C2D9FD"/>
<path transform="translate(186,791)" d="m0 0h14v2l-12 3h-3z" fill="#FAFAFB"/>
<path transform="translate(1079,1269)" d="m0 0 2 3v2l-4 2h-11l-4-2 12-1z" fill="#FBFBFC"/>
<path transform="translate(504,953)" d="m0 0 3 2v10l-2 3v-3h-2v-10z" fill="#30A0CA"/>
<path transform="translate(1130,493)" d="m0 0 2 1-1 9-3 1v2l-3 1 2-9z" fill="#74D8EB"/>
<path transform="translate(1117,408)" d="m0 0 4 1-3 13-2 5h-1v-10l2-6z" fill="#4CC6E1"/>
<path transform="translate(205,617)" d="m0 0 7 1 6 7-5 3-1-5-5-3-2-1z" fill="#FAFAFC"/>
<path transform="translate(266,485)" d="m0 0h11l-1 2h-2l-1 3-7-1-3-3z" fill="#FAFBFD"/>
<path transform="translate(1038,1198)" d="m0 0h17l4 2-22 1z" fill="#FDFDFD"/>
<path transform="translate(565,945)" d="m0 0 2 4-3 13-3 1 2-10z" fill="#37A3CF"/>
<path transform="translate(1423,683)" d="m0 0 9 2 2 1-2 2 1 5-4-1z" fill="#FCFCFC"/>
<path transform="translate(1332,1292)" d="m0 0 1 2h9v1l-14 4-2 1 2-4z" fill="#F9F9FB"/>
<path transform="translate(564,928)" d="m0 0 6 2v1h-21l1-2z" fill="#2FA7CC"/>
<path transform="translate(1231,908)" d="m0 0h12l6 1v1l-8 1v-2h-3v2h-9l2-1z" fill="#4B2FFA"/>
<path transform="translate(668,1080)" d="m0 0 1 2 2 1-10 4h-5l1-3 9-3z" fill="#57CFE2"/>
<path transform="translate(965,638)" d="m0 0h3v3l-4 1h-21l1-2 19 1v-2z" fill="#3E8FEB"/>
<path transform="translate(1e3 420)" d="m0 0 2 2v9l-2-2-1 8-2-4 2-11z" fill="#FDFDFD"/>
<path transform="translate(1334,1243)" d="m0 0 2 2v7l-1 3h-2l-1-8z" fill="#8DB8FD"/>
<path transform="translate(543,1026)" d="m0 0 3 3-2 9-4 2z" fill="#37A5CF"/>
<path transform="translate(1222,1061)" d="m0 0h3l-1 4-5 6h-2l1-5 2-1-1-2z" fill="#3AB5D6"/>
<path transform="translate(257,1061)" d="m0 0 3 3-1 5-1 4v3h-3l1-13z" fill="#FDFDFD"/>
<path transform="translate(220,572)" d="m0 0 6 1 13 2v1l-9 1-9-3z" fill="#7AD1ED"/>
<path transform="translate(1052,275)" d="m0 0 3 1-1 8-2 4h-2v-6z" fill="#FCFCFC"/>
<path transform="translate(1059,1274)" d="m0 0 3 3h-16v-2z" fill="#FCFBFC"/>
<path transform="translate(1024,485)" d="m0 0 9 1 6 4 2 3-6-2-4-3-7-2z" fill="#7BD6ED"/>
<path transform="translate(258,1084)" d="m0 0h2l2 6-1 6-3-4z" fill="#F4F4F9"/>
<path transform="translate(410,1064)" d="m0 0 4 1 2 4v5l-4-4-2-3z" fill="#4BD2DB"/>
<path transform="translate(1276,1055)" d="m0 0 2 3 3 9v4h-2l-3-11z" fill="#48C0DD"/>
<path transform="translate(1196,1028)" d="m0 0 3 1-10 5-3-1v-2z" fill="#299AE5"/>
<path transform="translate(490,997)" d="m0 0 6 2v7l-5-4z" fill="#2596E2"/>
<path transform="translate(1366,513)" d="m0 0h2v3l-2 1h-12l2-2 9-1z" fill="#32C4C7"/>
<path transform="translate(272,486)" d="m0 0h6v5l-1 1h-6v-2l3-3z" fill="#C7D3F8"/>
<path transform="translate(1019,1197)" d="m0 0h13l1 3-15-1z" fill="#FDFDFD"/>
<path transform="translate(562,962)" d="m0 0h1l-1 10-4 2 2-10z" fill="#35A0CD"/>
<path transform="translate(420,833)" d="m0 0 2 1-6 7-5 3h-2v-2l3-2h3l2-4 3-1z" fill="#43B1E4"/>
<path transform="translate(304,708)" d="m0 0 2 1-4 5-6 3-3 2 2-4 4-4z" fill="#4EBEE4"/>
<path transform="translate(1266,676)" d="m0 0h12l3 1v2l-12-1z" fill="#6AD2E8"/>
<path transform="translate(1200,1154)" d="m0 0 11 1-3 1v2h-8l-1-2z" fill="#40BEDA"/>
<path transform="translate(517,1051)" d="m0 0h13v1h-9l-1 4-5-1 2-1z" fill="#40BEDB"/>
<path transform="translate(1294,528)" d="m0 0h4v2l-11 4 1-5z" fill="#4BC6E0"/>
<path transform="translate(205,441)" d="m0 0h2v12h-2l-1-10z" fill="#B1CEFD"/>
<path transform="translate(1293,432)" d="m0 0 4 1 9 5 2 5-15-10z" fill="#76D7EB"/>
<path transform="translate(334,999)" d="m0 0 6 2v1h-13v-2z" fill="#F9F9FB"/>
<path transform="translate(1340,777)" d="m0 0 11 7v2l-5-2-9-6z" fill="#FDFDFD"/>
<path transform="translate(1292,750)" d="m0 0 1 2-1 6 1 8-3-4-1-5 2-6z" fill="#FDFDFD"/>
<path transform="translate(1126,671)" d="m0 0h5l6 3 7 1v1h-8l-10-4z" fill="#3E95EA"/>
</svg>
