<?xml version="1.0" encoding="UTF-8"?>
<svg version="1.1" viewBox="0 0 2048 245" width="2183" height="262" xmlns="http://www.w3.org/2000/svg">
<path transform="translate(479,37)" d="m0 0h60l13 17 9 13 13 18 14 19 13 18 7 10 4-4 12-17 14-19 10-14 26-36 4-5h60l2 2v196l-2 2-6-1-23-13-24-14-1-1-1-97-12 17-14 19-13 18-14 19-3 4h-37l-10-13-10-14-26-36-10-14-1 97-1 1h-53l-1-1v-170z" fill="#EDE1D8"/>
<path transform="translate(9,37)" d="m0 0h179l14 18 14 19 10 14v6l-13 17-8 11 7 11 10 13 4 6v6l-14 19-16 21-7 10-2 1h-178l-2-3v-167zm54 43v23h92l9-11-2-4-7-8zm0 62v24h92l9-10-2-5-7-9z" fill="#EDE1D8"/>
<path transform="translate(1455,9)" d="m0 0h6l1 1v198l-2 1h-40l-9-7-33-27-68-56-3-2-1 91-1 1h-53l-1-1v-170l1-1h39l13 11 10 8 17 14 22 18 34 28 11 9 7 6 1-93 25-15 23-13z" fill="#EDE1D8"/>
<path transform="translate(1494,37)" d="m0 0h169l3 3 14 25 28 49 3 5v8l-14 24-12 22-20 34-2 2h-169l-1-1v-170zm54 43v86h79l12-22 11-19-1-6-14-24-8-15z" fill="#EDE1D8"/>
<path transform="translate(1775,37)" d="m0 0h142l12 12 6 5 7 8 8 7 6 7v94l-39 39h-142l-38-38v-96zm17 43v86h108v-86z" fill="#EDE1D8"/>
<path transform="translate(255,37)" d="m0 0h201l2 1v5l-37 37h-111v23h123l1 5-34 34h-90v24h141l1 5-7 8-13 12-18 18h-158l-2-2v-169z" fill="#EDE1D8"/>
<path transform="translate(910,37)" d="m0 0h54l5 8 12 22 14 25 14 26 13 23 2 4 8-13 15-28 13-23 15-28 9-15 1-1h54l1 1v6l-16 30-10 18-14 26-16 29-14 26-13 24-6 10-2 2h-49l-4-4-12-23-13-23-12-23-10-18-14-26-13-23-12-23-2-3 1-5z" fill="#EDE1D8"/>
<path transform="translate(1213,8)" d="m0 0h5l1 1v199l-2 1h-52l-2-2v-169l9-6 21-12z" fill="#ECE1D8"/>
<path transform="translate(1979,37)" d="m0 0h59l2 1v9l-11 85-7 9-9 11-6 1-7-7-9-11-2-2-9-69-2-17v-9z" fill="#EDE1D8"/>
<path transform="translate(479,37)" d="m0 0h60l13 17 9 13 13 18 14 19 13 18 7 10 4-4 12-17 14-19 10-14 26-36 4-5h60l2 2v196l-2 2-6-1-23-13-24-14-1-1-1-97-12 17-14 19-13 18-14 19-3 4h-37l-10-13-10-14-26-36-10-14-1 97-1 1h-53l-1-1v-170zm1 2v166l1 1h49l1-105 39 54 14 19 8 11h33l14-19 26-36 14-19 7-10 1 105 48 28h2v-194l-1-1h-57l-11 15-4 7v2h-2l-7 11-14 19-10 14-13 18-8 11v2l-5-5-12-16-39-54-14-19-3-5z" fill="#1F3969"/>
<path transform="translate(255,37)" d="m0 0h201l2 1v5l-37 37h-111v23h123l1 5-34 34h-90v24h141l1 5-7 8-13 12-18 18h-158l-2-2v-169zm1 2 1 167h155l13-13 8-7 16-16v-1h-142v-30h91l32-32v-1l-122-1-1-28h112l36-36v-2z" fill="#223C6A"/>
<path transform="translate(1459,12)" d="m0 0h2l1 13v183l-2 1h-40l-9-7-33-27-68-56-3-2-1 91-1 1h-53l-1-1v-170l1-1h39l13 11 10 8 17 14 22 18 34 28 11 9 7 6 1-93 22-13v3l-19 11v99l-4-2-13-11-14-11-14-12-22-18-13-11-14-11-15-13-10-8-1-1-36-1 1 166 49 1v-96l5 2 13 11 22 18 17 14 33 27 17 14 11 9 38 1z" fill="#163264"/>
<path transform="translate(910,37)" d="m0 0h54l5 8 12 22 14 25 14 26 13 23 2 4 8-13 15-28 13-23 15-28 9-15 1-1h54l1 1v6l-16 30-10 18-14 26-16 29-14 26-13 24-6 10-2 2h-49l-4-4-12-23-13-23-12-23-10-18-14-26-13-23-12-23-2-3 1-5zm0 2v2h2l2 6 12 22 13 24 10 18 14 26 13 23 11 21 12 22 2 3h47l15-28 24-44 13-24 12-22 16-29 10-18-1-2h-52l-7 15-8 15-15 28-15 27-14 26-2 2-13-24-13-23-10-19-10-18-13-24-3-5z" fill="#213B6A"/>
<path transform="translate(9,37)" d="m0 0h179l14 18 14 19 10 14v6l-13 17-8 11 7 11 10 13 4 6v6l-14 19-16 21-7 10-2 1h-178l-2-3v-167zm1 2v166l1 1h175l16-21 10-14 11-15-1-4-14-19-7-10 4-7 13-17 5-7-1-4-14-19-16-21-6-9z" fill="#2B436F"/>
<path transform="translate(1494,37)" d="m0 0h169l3 3 14 25 28 49 3 5v8l-14 24-12 22-20 34-2 2h-169l-1-1v-170zm1 2v166l1 1h165l6-9 14-25 24-42 3-5-1-6-13-23-16-28-10-18-6-11z" fill="#2B436F"/>
<path transform="translate(1775,37)" d="m0 0h142l12 12 6 5 7 8 8 7 6 7v94l-39 39h-142l-38-38v-96zm1 2-20 20-14 16-3 3v90l38 38h138l6-5 15-15v-2l4-2 13-13v-92l-36-36-1-2z" fill="#28406D"/>
<path transform="translate(1989,166)" d="m0 0h40l1 1v41l-1 1h-40l-1-1v-41z" fill="#EDE1D8"/>
<path transform="translate(1216,12)" d="m0 0h2l1 16v180l-2 1h-52l-2-2v-169l9-6 9-5 3 1-17 10h-2l1 2v166h50z" fill="#163264"/>
<path transform="translate(1789,77)" d="m0 0h114v92h-114zm3 3v86h108v-86z" fill="#173264"/>
<path transform="translate(1545,77)" d="m0 0h84l14 25 11 19-1 5-13 24-8 14-3 5h-83l-1-1zm3 3v86h79l12-22 11-19-1-6-14-24-8-15z" fill="#173364"/>
<path transform="translate(910,37)" d="m0 0h54l5 8 12 22 14 25 14 26 13 23 2 4 8-13 15-28 13-23 15-28 8-13 2-1-1 5-5 10-8 15-15 28-15 27-14 26-3 3-12-21-13-24-12-22-10-18-13-24-2-6h-52z" fill="#29416E"/>
<path transform="translate(1979,37)" d="m0 0h59l2 1v9l-11 85-7 9-9 11-6 1-7-7-9-11-2-2-9-69-2-17v-9zm1 2 7 55 5 37 9 10 7 8h3l9-11 6-7 11-85v-7z" fill="#2B436F"/>
<path transform="translate(1428,25)" d="m0 0v3l-19 11v99l-4-2-13-11-14-11-14-12-22-18-13-11-14-11-15-13-10-8-1-3h-37v-1h39l13 11 10 8 17 14 22 18 34 28 11 9 7 6 1-93z" fill="#253E6C"/>
<path transform="translate(479,37)" d="m0 0h60l13 17 9 13 13 18 14 19 13 18 7 10 4-4 12-17 14-19 10-14 13-18 12-17 4-2-2 5-7 10-4 7h-2l-2 5-10 14-39 54-1 2-4-2-13-18-14-19-26-36-14-19-2-3v-3h-58z" fill="#2B436F"/>
<path transform="translate(60,139)" d="m0 0h97l11 14v3l-11 13h-97zm3 3v24h92l9-10-2-5-7-9z" fill="#163264"/>
<path transform="translate(60,77)" d="m0 0h97l11 12-1 4-10 13h-96l-1-1zm3 3v23h92l9-11-2-4-7-8z" fill="#163264"/>
<path transform="translate(1989,166)" d="m0 0h40l1 1v41l-1 1h-40l-1-1v-41zm2 3v37h36v-37z" fill="#163264"/>
<path transform="translate(677,38)" d="m0 0h59v1l-57 1-3 1z" fill="#193465"/>
<path transform="translate(1181,27)" d="m0 0 3 1-20 12v-3l15-9z" fill="#3A4F77"/>
<path transform="translate(1214,12)" d="m0 0h1v8l-9-2 3-3z" fill="#FCFBFA"/>
<path transform="translate(676,41)" d="m0 0v3l-5 7-3 1 2-4 3-5z" fill="#2D4470"/>
</svg>
